<?xml version="1.0" encoding="utf-8"?>
<!-- Generator: Adobe Illustrator 23.1.1, SVG Export Plug-In . SVG Version: 6.00 Build 0)  -->
<svg version="1.1" id="Ebene_1" xmlns="http://www.w3.org/2000/svg" xmlns:xlink="http://www.w3.org/1999/xlink" x="0px" y="0px"
	 viewBox="0 0 504.5 498.1" style="enable-background:new 0 0 504.5 498.1;" xml:space="preserve">
<style type="text/css">
	.st0{fill:#BC2729;}
	.st1{font-family:'Frutiger-Italic';}
	.st2{font-size:7.6396px;}
	.st3{fill:#100F10;}
	.st4{fill:#FFFFFF;}
	.st5{clip-path:url(#SVGID_2_);fill-rule:evenodd;clip-rule:evenodd;fill:#FFFFFF;}
	.st6{clip-path:url(#SVGID_4_);fill:none;stroke:#100F10;stroke-width:3.299879e-02;stroke-miterlimit:9.9996;}
	.st7{clip-path:url(#SVGID_6_);fill:#FFFFFF;}
	.st8{clip-path:url(#SVGID_8_);fill:#FFFFFF;}
	.st9{clip-path:url(#SVGID_10_);fill:#FFFFFF;}
	.st10{clip-path:url(#SVGID_12_);fill:#FFFFFF;}
	.st11{clip-path:url(#SVGID_14_);}
	.st12{clip-path:url(#SVGID_16_);}
	.st13{clip-path:url(#SVGID_18_);}
	.st14{clip-path:url(#SVGID_20_);}
	.st15{clip-path:url(#SVGID_22_);}
	.st16{clip-path:url(#SVGID_24_);}
	.st17{fill:#9B1428;}
	.st18{fill:#C5C6C7;}
	.st19{fill:#B1B2B3;}
	.st20{fill:#4E4F4F;}
	.st21{fill:#838486;}
	.st22{fill:#4B4C4B;}
	.st23{fill:#696A6B;}
	.st24{fill:#D9DADB;}
</style>
<g>
	<g>
		
			<image style="overflow:visible;enable-background:new    ;" width="65" height="65" xlink:href="E6DA4D4B659A0154.jpg"  transform="matrix(3.729767e-17 -0.6801 0.6091 4.164148e-17 138.4432 252.6589)">
		</image>
		
			<image style="overflow:visible;enable-background:new    ;" width="73" height="73" xlink:href="E6DA4D4B659A0154.png"  transform="matrix(0.5333 0 0 0.5954 138.7639 208.8123)">
		</image>
		<g>
			<text transform="matrix(0.8061 0 0 1 152.126 259.1329)" class="st0 st1 st2">A</text>
			<text transform="matrix(0.8061 0 0 1 159.6846 259.1329)" class="st0 st1 st2">L</text>
		</g>
		<g>
			<text transform="matrix(0.8061 0 0 1 166.373 259.1329)" class="st0 st1 st2">L</text>
			<text transform="matrix(0.8061 0 0 1 173.0664 259.1329)" class="st0 st1 st2">C</text>
			<text transform="matrix(0.8061 0 0 1 180.4199 259.1329)" class="st0 st1 st2">L</text>
			<text transform="matrix(0.8061 0 0 1 187.1084 259.1329)" class="st0 st1 st2">U</text>
			<text transform="matrix(0.8061 0 0 1 194.8809 259.1329)" class="st0 st1 st2">B</text>
			<text transform="matrix(0.8061 0 0 1 165.0381 268.0065)" class="st3 st1 st2">R</text>
			<text transform="matrix(0.8061 0 0 1 171.4297 268.0065)" class="st3 st1 st2">U</text>
			<text transform="matrix(0.8061 0 0 1 178.4893 268.0065)" class="st3 st1 st2">S</text>
			<text transform="matrix(0.8061 0 0 1 184.6006 268.0065)" class="st3 st1 st2">W</text>
			<text transform="matrix(0.8061 0 0 1 192.8848 268.0065)" class="st3 st1 st2">I</text>
			<text transform="matrix(0.8061 0 0 1 197.4404 268.0065)" class="st3 st1 st2">L</text>
		</g>
	</g>
	<g>
		<path class="st4" d="M251,493.7c-38.9-15-72.8-42.5-100.7-81.9c-23,1.1-45.8,2.7-68.2,4.5c-1.4,0.1-3.4,0.2-5.3,0.2
			c-2.5,0-7.2-0.1-11.2-0.8c-2.7-0.5-5.6-1.3-7.4-3.9c-1-1.6-1.4-3.5-0.9-5.6c-0.9,0.1-8.3,0.9-16.4,0.9c-9.8-0.1-19.5-0.9-23.7-6.5
			l-4.3-6.1l7.1-2.7c1.4-0.6,9.1-3.7,16.6-7.7c5.8-3.1,10-6.1,12.4-8.4c-19.2-9.2-32.5-32.1-32.6-32.3l-6.2-12l11.9,4.9
			c0,0,0.1,0,0.2,0.1c0.8,0.3,4.4,1.8,5.3,2.2c4.3,1.7,9.1,2.5,14.6,2.5h0.2c5.6,0,10.8-0.6,13.7-1c24.6-4.1,40.5-4.5,40.6-4.5
			c6.4,0,11,0.6,14.3,1.8c-24-61.1-35.6-133.5-33.3-210.5l0.1-2.6l2.4-0.1c29.6-1.6,57.8-6.4,83.8-14.1c-1-1.6-1.8-3.3-2.6-5
			c-1-2.4-5.8-14.8-1.1-18.9c0.6-0.6,1.3-0.8,2.1-0.8c2.4,0,4.3,2.7,6.2,5.4c0.4,0.7,0.9,1.3,1.1,1.6c2.8,3.1,6.2,5.7,9.3,8.1
			c1.4,1,3,2.1,4.7,3.1c10.9-4.1,21.3-8.7,31-13.9c-0.6-0.2-1.1-0.3-1.7-0.6c-1.7-0.6-3.6-1.3-5.4-1.9
			c-10.4-4.1-15.7-10.5-21.8-17.9c-5.4-6.5-13.6-11.3-23-13.6c-3.4-0.8-7-1.3-10.6-1.3c-3.6,0-7.2,0.3-10.8,1.1
			c-0.5,0.1-0.9,0.2-1.4,0.3c-0.9,0.2-1.7,0.6-2.6,0.6c-1.5,0-2.4-0.8-2.7-1.4c-1-1.5-0.7-3.3-0.6-3.9c0.6-3.1,3.5-6.3,8.5-9.4
			c6.7-4,14.4-6.1,23-6.1s18.2,2.1,28.3,6.1c0.8,0.3,1.6,0.7,2.6,1c3.6,1.5,7.6,3.2,10.8,3.2c2.7,0,4.1-1.1,4.9-3.9
			c1.8-6.1,0.9-14.5-2.4-21.2c-0.7-1.5-1.9-2.9-3.2-4.2c-1.2-1.4-2.5-2.7-3.4-4.5c-1-1.7-1.1-3.3-0.5-4.7c0.3-0.7,1.2-1.8,3.2-1.8
			c1.5,0,3.5,0.7,5.7,1.6l0.4,0.2c8.3,3.3,15.8,10.6,19.9,19.8c3.4,7.6,3.8,15.1,4.2,22.4c0.2,3.4,0.4,7,0.9,10.4
			c0.6,4.2,3.2,8.1,5.9,11.6c4.8-3.8,7.3-6.2,7.4-6.2l1.6-1.6l1.7,1.6c0.2,0.2,5,4.9,14.9,11.7c0.3-2.3,0.7-5.5,3.5-5.5
			c1.4,0,2.5,1,3.9,2.5c2.2,2.3,4.1,4.9,5.9,7.3c1.5,1.9,2.9,3.9,4.4,5.6c0.5,0.6,0.9,1.1,1.4,1.6c18.3,9.7,38.7,17.7,60.7,23.7
			c1.5-4.7-4-15.1-8-19.9c-5.4-6.6-13.3-11.6-22.4-13.9c-5.3-1.4-10.9-1.8-16.2-2.4c-9.2-0.9-18.9-1.8-27.8-6.8
			c-11.7-6.4-12.1-10.4-12.2-11.7c-0.2-1.4,0.1-2.6,0.8-3.4c0.4-0.6,1.2-1.3,2.6-1.3c0.7,0,1.4,0.2,2.2,0.3c0.4,0.1,0.8,0.2,1.2,0.3
			c4.1,0.7,8.4,1,12.7,1c4.5,0,9-0.3,13.4-1.1l0.7-0.1c2.4-0.3,7.4-1.1,8.4-3.2c0.6-1-0.5-3.4-5.2-7.2c-5.4-4.4-13.5-7.6-24.7-10
			c-6.2-1.3-13.3-2.6-20.7-2.6c-2.2,0-4.3,0.1-6.3,0.3c-0.3,0-1,0.2-1.7,0.3c-1.4,0.3-3.1,0.8-4.5,0.8s-2.5-0.5-3.3-1.3
			c-0.6-0.7-1-1.7-0.9-2.7c0-2.4,1.8-5.2,10.6-10.9l0.3-0.2c8.1-5.4,18-8.1,29.6-8.1c6.9,0,14.2,0.9,21.7,2.9
			c9.3,2.4,17.7,6.2,24.9,11.2c7.5,5.3,11.6,11.8,15.9,18.7c0.7,1.1,1.5,2.4,2.4,3.7c4.3,6.6,9.9,12,15.9,17.6
			c5.4,5.2,11.1,10.5,15.7,17.1c8.6,12.3,12.5,26.1,11.5,40.1c12.5,1.9,25.5,3.3,38.8,4l2.4,0.1l0.1,2.6
			c1.1,40.2-1.4,79.5-7.8,116.7v0.2c-0.4,2.6-0.9,5.4-1.5,8.5c-0.1,0.6-0.5,2.4-0.5,2.4c-0.4,2.1-0.8,4-1.2,6.1
			c-0.2,0.9-0.4,1.8-0.6,2.7c-0.4,1.9-0.8,4-1.2,6c0,0-0.4,1.8-0.5,2.4c-1.2,5.5-2.6,11-4,16.3c-0.1,0.5-0.5,2.1-0.5,2.1
			c-0.5,1.9-1.1,4-1.6,6c-0.2,0.8-0.4,1.6-0.7,2.4c-0.6,1.9-1.1,4-1.7,6l-0.6,1.9c-1.6,5.3-3.3,10.5-5.1,15.6l-0.6,1.7
			c-0.7,1.9-1.4,4-2.2,6c-0.2,0.7-0.5,1.4-0.7,2.1c-0.7,1.9-1.4,3.9-2.3,5.8c3.3-1.3,7.8-1.8,14.2-1.8c0.1,0,16,0.3,40.6,4.5
			c2.9,0.5,8.2,1,14,1c8.7,0,13.2-1.4,15.5-2.6c1.1-0.6,4.2-2.2,4.2-2.2l12.7-6.4l-6.7,13.3c-0.1,0.2-13.4,23.1-32.6,32.3
			c2.4,2.3,6.6,5.3,12.4,8.4c8.4,4.5,17.6,8,17.7,8.1l5.9,2.3l-4.3,6c-4.3,5.7-13.9,6.5-23.8,6.6c-8.2,0-14.3-0.7-16.4-0.9
			c-0.1,0-0.2,0-0.3,0c0.3,1.8,0,3.7-1,5.2c-1.4,2.2-4,3.5-8.3,4.2c-3.7,0.6-6.6,0.8-9.8,0.8c-2.1,0-3.9-0.1-5.3-0.2
			c-22.5-1.7-44.8-3.2-68.1-4.5c-27.9,39.4-61.7,66.9-100.7,81.9l-0.8,0.3L251,493.7z"/>
		<path class="st4" d="M205.6,9c1.3,0,3.8,1,5.3,1.6c8.2,3.2,14.9,10.4,18.4,18.4c4.6,10.4,3.3,21.1,4.9,31.9
			c0.8,5.5,4.2,10.3,8.1,14.8c6.3-4.7,9.4-7.8,9.4-7.8l0,0l0,0c0,0,6.2,6.1,18.8,14.3c0-1.5,0.2-2.9,0.3-4.4
			c0.3-2.1,0.4-3.1,0.9-3.1c0.4,0,1,0.6,2.1,1.7c3.7,4,6.8,8.7,10.4,12.9c0.6,0.7,1.2,1.4,1.7,2.1c15.6,8.4,36.6,17.5,63.4,24.5
			c5.2-6-3.3-20.3-7.2-25.1c-5.9-7.3-14.6-12.4-23.7-14.7c-14.5-3.7-29.8-1.5-43.5-8.9c-2.7-1.5-10.5-6-10.9-9.5
			c-0.1-1.1,0.2-1.5,0.8-1.5c0.7,0,1.8,0.5,3,0.7c4.3,0.7,8.7,1.1,13.1,1.1c4.6,0,9.3-0.3,13.8-1.1c3.3-0.6,9-1.3,11-4.6
			c2.4-4-2.9-8.7-5.9-11.1c-7.1-5.6-17.1-8.6-25.7-10.4c-7-1.5-14-2.6-21.1-2.6c-2.2,0-4.3,0.1-6.6,0.3c-1.3,0.1-4.1,1.1-5.9,1.1
			c-0.9,0-1.6-0.2-1.6-1.1c0-2.5,7.9-7.6,9.5-8.7c8.4-5.6,18.4-7.8,28.3-7.8c7.2,0,14.5,1.1,21.2,2.9c8.6,2.2,16.8,5.7,24.1,10.9
			c8.3,6,12.2,13.3,17.5,21.6c8.7,13.4,22.6,21.6,31.6,34.7c8.5,12.1,12.4,26.3,10.7,40.8c12.8,2.1,26.6,3.7,41.4,4.5
			c1.1,40.4-1.5,79.6-7.8,116.2l0,0l0,0c-0.5,2.9-1,5.6-1.5,8.4c-0.1,0.8-0.3,1.6-0.4,2.4c-0.4,2.1-0.8,4-1.1,6
			c-0.2,0.9-0.4,1.8-0.6,2.7c-0.4,1.9-0.8,3.9-1.2,5.8c-0.2,0.8-0.3,1.6-0.5,2.4c-1.2,5.5-2.6,10.9-4,16.1c-0.2,0.7-0.4,1.4-0.5,2.1
			c-0.5,1.9-1,4-1.6,6c-0.2,0.8-0.4,1.6-0.7,2.4c-0.6,1.9-1.1,3.9-1.7,5.8c-0.2,0.7-0.4,1.3-0.6,1.9c-1.6,5.3-3.3,10.4-5,15.5
			c-0.2,0.6-0.4,1.1-0.6,1.7c-0.7,1.9-1.4,3.9-2.2,6c-0.2,0.7-0.5,1.4-0.7,1.9c-0.7,1.9-1.5,3.9-2.3,5.8c-0.2,0.6-0.4,1-0.6,1.6
			c-1.7,4.4-3.5,8.6-5.3,12.8c1.9,0.1,3.8,0.2,5.7,0.2c-1-5.8-0.9-6.2-0.9-6.5c0.1-0.8,0.5-1.6,0.7-1.8l0.1-0.1
			c0.6-0.8,1.4-1.4,2.6-1.9c2.9-1.4,7.6-2.1,14.4-2.2c0.1,0,15.8,0.3,40.2,4.4c3.1,0.6,8.6,1,14.5,1l0,0c7.3,0,12.9-1,16.6-2.9
			c1.1-0.6,4.2-2.2,4.2-2.2l5.6-2.9l-2.9,5.6c-0.1,0.2-14.7,25.1-34.8,32.5c1.6,3.2,7.4,7.8,15.7,12.1c8.5,4.6,17.9,8.1,18,8.2
			l2.6,0.9l-2.1,2.7c-3.6,4.8-13,5.5-21.7,5.5c-8.1,0-13.9-0.7-16.1-0.9c-1.3-0.1-3.2-0.5-5-0.8h-0.2c0.1,0.2,0.2,0.5,0.4,0.6
			c0.7,1.1,1.3,2.2,1.6,3.5c0.2,1,0.1,2.1-0.5,3c-1,1.5-3.1,2.5-6.6,3.1c-3.6,0.6-6.3,0.8-9.5,0.8c-1.9,0-3.8-0.1-5.2-0.1
			c-23.5-1.8-46.6-3.3-69.5-4.5c-26.9,38.2-60.6,66.7-100.3,82.1l0,0c-39.7-15.2-73.5-43.8-100.3-82.1c-22.9,1.1-46,2.6-69.5,4.5
			c-1.3,0.1-3.2,0.1-5.2,0.1c-2.4,0-7-0.1-10.9-0.7c-2.2-0.3-4.5-1-5.6-2.7c-0.4-0.7-0.8-1.7-0.5-3.2c0.3-1.4,0.8-2.2,1.5-3.2
			c0.1-0.2,0.3-0.5,0.4-0.7c-0.1,0-0.2,0-0.3,0c-1.5,0.1-3.2,0.2-4.4,0.5c-0.1,0-7.8,0.9-16.1,0.9c-8.7-0.1-18.2-0.8-21.7-5.5
			l-2.1-2.9l3.6-1.4c1.6-0.7,9.2-3.7,16.9-7.8c8.3-4.4,14-8.9,15.7-12.1c-20.2-7.4-34.7-32.2-34.8-32.5l-2.7-5l5.2,2.2
			c0,0,4.5,1.8,5.5,2.3c4.5,1.8,9.7,2.7,15.4,2.7c0.1,0,0.2,0,0.2,0c5.7,0,11.1-0.6,14.2-1c24.5-4.1,40.1-4.4,40.2-4.4
			c6.8,0,11.5,0.7,14.4,2.2c1,0.5,1.9,1.1,2.5,1.9l0.1,0.1c0.1,0.2,0.6,0.9,0.7,1.8c0.1,0.7-0.1,1.7-0.2,2.4l-0.7,4.1
			c1.9-0.1,3.9-0.2,5.7-0.2c-27.1-62.6-41-140.1-38.7-223.6c34.9-1.9,64.1-7.9,88-15.3c-1.8-2.4-3.3-5-4.5-8
			c-1.1-2.7-4.7-12.9-1.8-15.5c0.1-0.1,0.3-0.2,0.5-0.2c1.6,0,4.2,4.8,5.4,6.2c2.9,3.3,6.3,5.8,9.7,8.5c1.8,1.4,3.9,2.6,5.9,3.9
			c15.2-5.6,27.8-11.7,37.8-17.4c-4.1-1.9-8.7-3.1-12.8-4.8c-9.6-3.9-14.4-9.4-20.8-17.1c-6.3-7.4-15.1-12.3-24.3-14.4
			c-3.7-0.9-7.4-1.3-11.2-1.3c-3.8,0-7.6,0.5-11.3,1.3c-1.3,0.3-2.7,0.9-3.5,0.9c-0.7,0-1-0.5-0.8-1.8c0.6-3,4.8-6,7.2-7.4
			c6.8-4.1,14.3-5.7,21.7-5.7c9.3,0,18.9,2.5,27.4,6c4.1,1.6,9.6,4.5,14.3,4.5c3.3,0,6.1-1.5,7.3-5.8c2.3-7.3,0.8-16.7-2.6-23.5
			c-1.7-3.5-4.9-5.7-6.7-8.9C204.3,9.6,204.7,9,205.6,9 M205.6,3.3L205.6,3.3c-3.4,0-4.9,2.3-5.4,3.3c-0.8,1.6-1.3,4.2,0.6,7.6
			c1.1,1.9,2.6,3.5,3.8,4.9c1.1,1.3,2.2,2.4,2.8,3.7c2.9,6,3.8,13.6,2.2,19c-0.4,1.5-0.8,1.9-2.5,1.9c-2.8,0-6.7-1.7-9.9-3
			c-0.9-0.3-1.7-0.8-2.6-1c-10.5-4.1-20.2-6.2-29.1-6.2c-9,0-17.2,2.2-24.2,6.4c-5.8,3.5-9,7.2-9.7,11.2c-0.6,3.1,0.3,5.2,1.1,6.3
			c1.1,1.6,2.8,2.4,4.7,2.4c1.2,0,2.3-0.3,3.3-0.7c0.4-0.1,0.8-0.2,1.2-0.3c3.4-0.8,6.9-1.1,10.3-1.1c3.5,0,6.9,0.3,10,1.1
			c8.9,2.2,16.6,6.6,21.6,12.7c6.4,7.7,11.9,14.2,22.9,18.5c0.3,0.1,0.5,0.2,0.8,0.3c-7.5,3.7-15.4,7.1-23.7,10.3
			c-1.2-0.8-2.5-1.6-3.6-2.4c-3.1-2.3-6.3-4.8-8.9-7.7c-0.2-0.2-0.6-0.8-0.9-1.3c-2.2-3.1-4.5-6.5-8.2-6.5l0,0
			c-1.3,0-2.6,0.5-3.7,1.4c-4.4,3.9-2.9,11.1-2.4,13.5c0.9,4.5,2.6,8.5,2.8,8.9c0.3,0.7,0.6,1.4,0.9,2.1
			c-24.8,7.1-51.7,11.4-80,13.1l-4.7,0.2l-0.1,5.3c-2.2,75.3,8.7,146.2,31.6,206.7c-2.8-0.5-5.9-0.7-9.8-0.7c-0.1,0-16.2,0.3-41,4.5
			c-2.9,0.5-7.9,1-13.3,1h-0.1h-0.1c-5.1,0-9.6-0.8-13.6-2.4c-0.3-0.1-1.5-0.6-5.3-2.2c-0.1,0-0.1,0-0.2-0.1l0,0l-5.2-2.2l-13.3-5.6
			l7.2,13.9l2.7,5c0.1,0.2,11.9,20.8,29.8,31.4c-2.1,1.5-4.8,3.3-8.5,5.3c-7.4,4-15,7-16.4,7.6l-3.6,1.4l-6.9,2.6l4.5,6.3l2.1,2.9
			v0.1v0.1c4.9,6.5,15.3,7.4,25.6,7.4c5.4,0,10.7-0.3,13.7-0.7c0.2,1.5,0.7,2.9,1.5,4.1c2.6,3.9,7.1,4.7,9,5l0,0l0,0
			c4.2,0.7,9,0.8,11.6,0.8c2.1,0,4.1-0.1,5.5-0.2c21.8-1.7,44.3-3.2,66.8-4.4c28.1,39.2,62,66.6,101,81.6l1.6,0.7l1.6-0.7
			c39-15,73-42.5,101-81.6c22.9,1.3,44.7,2.6,66.8,4.4c1.4,0.1,3.5,0.2,5.5,0.2c3.5,0,6.5-0.2,10.3-0.9l0,0l0,0
			c3.4-0.6,7.5-1.7,9.9-5.4c0.7-1.1,1.2-2.4,1.4-3.7c3.1,0.3,8,0.7,14.2,0.7c10.5-0.1,20.7-1,25.7-7.6v-0.1v-0.1l2.1-2.7l4.6-6.4
			l-6.9-2.6l-2.6-0.9c-0.1,0-9.1-3.5-17.4-7.9c-3.7-1.9-6.5-3.8-8.5-5.3c17.9-10.5,29.8-31.3,29.9-31.5l2.9-5.6l7.7-15.2l-14.3,7.2
			l-5.6,2.9c0,0-3.2,1.6-4.2,2.2c-1.6,0.9-5.7,2.3-14.5,2.3c-5.7,0-11-0.6-13.7-1c-24.8-4.1-40.8-4.5-41-4.5c-3.9,0-7.1,0.2-9.8,0.7
			c0.1-0.2,0.2-0.5,0.2-0.7c0.2-0.7,0.5-1.4,0.7-2.1c0.7-1.9,1.4-3.9,2.2-6l0.2-0.7c0.1-0.3,0.2-0.7,0.4-1
			c1.7-5.2,3.5-10.4,5.1-15.7c0.1-0.5,0.3-0.8,0.4-1.3l0.2-0.7c0.6-2.1,1.2-4,1.7-6c0.2-0.8,0.4-1.6,0.7-2.4
			c0.5-1.9,1.1-3.9,1.6-6.1l0.2-0.8c0.1-0.5,0.2-0.9,0.4-1.4c1.4-5.4,2.8-10.9,4-16.4c0.1-0.6,0.2-1,0.4-1.6l0.2-0.8
			c0.5-2.1,0.9-4,1.3-6c0.2-0.9,0.4-1.8,0.6-2.7c0.4-1.9,0.8-3.9,1.2-6.1l0.2-0.8c0.1-0.6,0.2-1,0.3-1.6c0.6-3.1,1-5.8,1.5-8.5l0,0
			v-0.1c6.4-37.4,9-76.9,7.9-117.5l-0.1-5.3l-4.7-0.2c-12.3-0.7-24.4-1.9-36.1-3.7c0.4-13.7-3.7-27.2-12.1-39.4
			c-4.7-6.8-10.5-12.1-16-17.4c-5.8-5.5-11.4-10.8-15.5-17.1c-0.8-1.3-1.5-2.4-2.4-3.7c-4.5-7.1-8.7-13.9-16.6-19.5
			c-7.4-5.3-16-9.2-25.7-11.6c-7.8-1.9-15.3-3-22.4-3c-12,0-22.5,2.9-31,8.6l-0.3,0.2c-7.6,5-10.9,8.2-11.6,11.8
			c-0.1-0.2-0.2-0.3-0.2-0.6c-4.4-9.7-12.3-17.7-21.3-21.2l-0.4-0.2C209.7,4.1,207.5,3.3,205.6,3.3L205.6,3.3L205.6,3.3z
			 M240.8,35.4c1.6,0,3.5-0.5,5-0.8c0.5-0.1,1.2-0.3,1.4-0.3c1.9-0.2,3.9-0.3,5.9-0.3c7.1,0,14.3,1.3,20.2,2.5
			c10.9,2.3,18.6,5.4,23.7,9.5c2.3,1.8,3.4,3.1,3.9,3.8c-1.6,0.8-4.8,1.3-5.9,1.5l-0.7,0.1c-4.3,0.7-8.7,1-13.1,1
			c-4.2,0-8.4-0.3-12.3-1c-0.3,0-0.6-0.1-1-0.2c-0.8-0.2-1.7-0.5-2.8-0.5c-1.7,0-3.4,0.8-4.5,2.2c-0.8,1-1.7,2.9-1.4,5.7
			c0.3,2.7,1.7,6.5,9.6,11.6c-0.8,0.6-1.6,1.5-2.2,2.9c-7.7-5.5-11.5-9.2-11.6-9.3l0,0l0,0l-3.5-3.3l-3.3,3.4
			c-0.3,0.3-2.1,1.9-5.1,4.5c-1.8-2.5-3.5-5.4-3.9-8.1c-0.5-3.3-0.7-6.6-0.9-10.1c-0.3-5.2-0.6-10.4-1.9-15.8
			C237.7,35.1,239.1,35.4,240.8,35.4L240.8,35.4z M289.2,86.7c-0.4-0.5-0.7-0.8-1.1-1.3c-1.4-1.7-2.9-3.5-4.3-5.5
			c-1-1.4-2.2-2.9-3.3-4.2c7,2.4,14.2,3.1,21.1,3.8c5.5,0.6,10.8,1,15.9,2.3c8.5,2.2,16,6.8,21,12.9c1.8,2.3,4.5,6.5,6.2,10.6
			c0.6,1.5,0.9,2.7,1.1,3.8C325.3,103.5,306.3,95.9,289.2,86.7L289.2,86.7z"/>
	</g>
</g>
<g>
	<g>
		<g>
			<g>
				<g>
					<defs>
						<rect id="SVGID_1_" x="158.3" y="159.3" width="46.2" height="110.8"/>
					</defs>
					<clipPath id="SVGID_2_">
						<use xlink:href="#SVGID_1_"  style="overflow:visible;"/>
					</clipPath>
					<path class="st5" d="M179.2,230.5c0,12.9-9.4,23.4-20.9,23.4c-11.6,0-20.9-10.5-20.9-23.4c0-12.9,9.4-23.4,20.9-23.4
						S179.2,217.6,179.2,230.5"/>
				</g>
				<g>
					<defs>
						<polygon id="SVGID_3_" points="96.2,214.1 106.8,163.9 203.4,189.4 192.8,239.6 						"/>
					</defs>
					<clipPath id="SVGID_4_">
						<use xlink:href="#SVGID_3_"  style="overflow:visible;"/>
					</clipPath>
					<ellipse class="st6" cx="158.2" cy="230.6" rx="20.9" ry="23.4"/>
				</g>
				<g>
					<defs>
						<rect id="SVGID_5_" x="158.3" y="159.3" width="46.2" height="110.8"/>
					</defs>
					<clipPath id="SVGID_6_">
						<use xlink:href="#SVGID_5_"  style="overflow:visible;"/>
					</clipPath>
					<rect x="157.4" y="206" class="st7" width="1.6" height="29.3"/>
				</g>
				<g>
					<defs>
						<rect id="SVGID_7_" x="158.3" y="159.3" width="46.2" height="110.8"/>
					</defs>
					<clipPath id="SVGID_8_">
						<use xlink:href="#SVGID_7_"  style="overflow:visible;"/>
					</clipPath>
					<rect x="167" y="206" class="st8" width="1.6" height="29.3"/>
				</g>
				<g>
					<defs>
						<rect id="SVGID_9_" x="158.3" y="159.3" width="46.2" height="110.8"/>
					</defs>
					<clipPath id="SVGID_10_">
						<use xlink:href="#SVGID_9_"  style="overflow:visible;"/>
					</clipPath>
					<rect x="176.8" y="215.2" class="st9" width="1.6" height="29.3"/>
				</g>
				<g>
					<defs>
						<rect id="SVGID_11_" x="158.3" y="159.3" width="46.2" height="110.8"/>
					</defs>
					<clipPath id="SVGID_12_">
						<use xlink:href="#SVGID_11_"  style="overflow:visible;"/>
					</clipPath>
					<rect x="141.7" y="245.9" class="st10" width="34.5" height="13.9"/>
				</g>
			</g>
		</g>
		<g>
			<g>
				<g>
					<defs>
						<path id="SVGID_13_" d="M158.3,252.2c10.7-0.1,19.3-9.7,19.3-21.6c0-11.9-8.6-21.6-19.3-21.6V252.2z"/>
					</defs>
					<clipPath id="SVGID_14_">
						<use xlink:href="#SVGID_13_"  style="overflow:visible;"/>
					</clipPath>
					<g class="st11">
						<g>
							<defs>
								<rect id="SVGID_15_" x="138.4" y="208.4" width="39.6" height="44.2"/>
							</defs>
							<clipPath id="SVGID_16_">
								<use xlink:href="#SVGID_15_"  style="overflow:visible;"/>
							</clipPath>
							<g class="st12">
								<g>
									<defs>
										<rect id="SVGID_17_" x="138.4" y="208.4" width="39.6" height="44.2"/>
									</defs>
									<clipPath id="SVGID_18_">
										<use xlink:href="#SVGID_17_"  style="overflow:visible;"/>
									</clipPath>
									<g class="st13">
										
											<image style="overflow:visible;enable-background:new    ;" width="65" height="65" xlink:href="E6DA4D4B659A0153.jpg"  transform="matrix(3.729767e-17 -0.6801 0.6091 4.164148e-17 138.4432 252.6589)">
										</image>
									</g>
								</g>
							</g>
						</g>
					</g>
				</g>
			</g>
		</g>
		<g>
			<g>
				<g>
					<defs>
						<path id="SVGID_19_" d="M158.3,252.2c10.7-0.1,19.3-9.7,19.3-21.6c0-11.9-8.6-21.6-19.3-21.6V252.2z"/>
					</defs>
					<clipPath id="SVGID_20_">
						<use xlink:href="#SVGID_19_"  style="overflow:visible;"/>
					</clipPath>
					<g class="st14">
						<g>
							<defs>
								<rect id="SVGID_21_" x="138.7" y="208.8" width="39" height="43.5"/>
							</defs>
							<clipPath id="SVGID_22_">
								<use xlink:href="#SVGID_21_"  style="overflow:visible;"/>
							</clipPath>
							<g class="st15">
								<g>
									<defs>
										<rect id="SVGID_23_" x="138.7" y="208.8" width="39" height="43.5"/>
									</defs>
									<clipPath id="SVGID_24_">
										<use xlink:href="#SVGID_23_"  style="overflow:visible;"/>
									</clipPath>
									<g class="st16">
										
											<image style="overflow:visible;enable-background:new    ;" width="73" height="73" xlink:href="E6DA4D4B659A015C.png"  transform="matrix(0.5333 0 0 0.5954 138.7639 208.8123)">
										</image>
									</g>
								</g>
							</g>
						</g>
					</g>
				</g>
			</g>
		</g>
		<g>
			<text transform="matrix(0.8061 0 0 1 152.126 259.1329)" class="st0 st1 st2">A</text>
			<text transform="matrix(0.8061 0 0 1 159.6846 259.1329)" class="st0 st1 st2">L</text>
		</g>
		<g>
			<text transform="matrix(0.8061 0 0 1 166.373 259.1329)" class="st0 st1 st2">L</text>
			<text transform="matrix(0.8061 0 0 1 173.0664 259.1329)" class="st0 st1 st2">C</text>
			<text transform="matrix(0.8061 0 0 1 180.4199 259.1329)" class="st0 st1 st2">L</text>
			<text transform="matrix(0.8061 0 0 1 187.1084 259.1329)" class="st0 st1 st2">U</text>
			<text transform="matrix(0.8061 0 0 1 194.8809 259.1329)" class="st0 st1 st2">B</text>
			<text transform="matrix(0.8061 0 0 1 165.0381 268.0065)" class="st3 st1 st2">R</text>
			<text transform="matrix(0.8061 0 0 1 171.4297 268.0065)" class="st3 st1 st2">U</text>
			<text transform="matrix(0.8061 0 0 1 178.4893 268.0065)" class="st3 st1 st2">S</text>
			<text transform="matrix(0.8061 0 0 1 184.6006 268.0065)" class="st3 st1 st2">W</text>
			<text transform="matrix(0.8061 0 0 1 192.8848 268.0065)" class="st3 st1 st2">I</text>
			<text transform="matrix(0.8061 0 0 1 197.4404 268.0065)" class="st3 st1 st2">L</text>
		</g>
		<g>
			<path class="st3" d="M423.5,127.4c-118-6.5-171.7-59.3-171.7-59.3l0,0l0,0l0,0l0,0c-0.1,0.1-53.7,52.8-171.7,59.3
				C75.3,300.3,140.3,448.1,251.8,491l0,0C363.4,448.1,428.4,300.3,423.5,127.4"/>
			<path class="st17" d="M411,138.5c-109.4-6.1-159-55-159.1-55l0,0l0,0l0,0l0,0c-0.1,0.1-49.7,49-159.1,55
				c-4.5,160.2,55.8,297.2,159.1,337.1l0,0l0,0l0,0l0,0C355.3,435.7,415.5,298.7,411,138.5"/>
		</g>
		<polygon class="st3" points="181.3,439.2 154,398.8 353,397 306.6,451.7 249.3,486.2 		"/>
		<g>
			<path class="st18" d="M297.3,420.9c-1.7-8-5.5-15-10.7-20.7c-0.8-0.9-1.7-1.8-2.7-2.7c-6.5-6.1-14.7-10.3-23.6-11.9
				c-1.1-0.2-2.4-0.3-3.5-0.5c-3.8-0.3-7.8-0.2-11.7,0.3c-4,0.7-7.7,1.8-11.3,3.3c-1.1,0.5-2.2,1-3.2,1.6
				c-8,4.4-14.4,10.9-18.6,18.8c-0.6,1.1-1.1,2.3-1.6,3.4c-3.1,7.1-4.4,15-3.6,23.1c0.1,0.9,0.2,1.8,0.3,2.6c0,0.3,0.1,0.6,0.2,0.9
				c1.6,9.2,5.9,17.3,12,23.6c0.8,0.9,1.7,1.7,2.7,2.5c5.8,5.3,13,8.9,20.7,10.6c1.2,0.2,2.5,0.5,3.8,0.7c4.3,0.6,8.8,0.6,13.3-0.2
				c4.5-0.7,8.8-2.1,12.7-4c1.1-0.6,2.3-1.1,3.4-1.8c6.9-4.1,12.4-9.8,16.3-16.6c0.6-1,1.1-2.2,1.7-3.2c3.7-7.9,5.2-16.9,4-26.1
				c0-0.3-0.1-0.6-0.1-0.9C297.7,422.6,297.5,421.8,297.3,420.9"/>
			<path class="st3" d="M220.5,447.4l2.3,14.2l-3.4,1.1c0.8,0.9,1.7,1.7,2.7,2.5l2.6-0.9l17.3,8.8l0.8,2.6c1.2,0.2,2.5,0.5,3.8,0.7
				l-1-3.4l12.8-6.5l14.2,2.2l0.1,3.5c1.1-0.6,2.3-1.1,3.4-1.8l-0.1-2.7l13.7-14l2.8,0.1c0.6-1,1.1-2.2,1.7-3.2h-3.6l-2.3-14.2
				l6.4-12.9l3.4,1c0-0.3-0.1-0.6-0.1-0.9c-0.1-0.9-0.3-1.7-0.5-2.6l-2.7-0.8l-8.9-17.4l0.9-2.6c-0.8-0.9-1.7-1.8-2.7-2.7l-1.1,3.3
				l-14.2-2.2l-10.3-10.1l2.1-3c-1.1-0.2-2.4-0.3-3.5-0.5l-1.5,2.3l-19.3,3.1l-2.2-1.7c-1.1,0.5-2.2,1-3.2,1.6l2.9,2.2l-6.6,12.8
				l-12.7,6.5l-2.2-2.9c-0.6,1.1-1.1,2.3-1.6,3.4l1.6,2.2l-3,19.3l-2.3,1.6c0.1,0.9,0.2,1.8,0.3,2.6c0,0.3,0.1,0.6,0.2,0.9l2.9-2.1
				L220.5,447.4z M243.6,470.2l-17.3-8.8l-2.3-13.5l12.2-6.3l17.3,8.8l2.3,13.5L243.6,470.2z M238,438.4l2.9-19l19-3.1l8.8,17.2
				l-13.5,13.7L238,438.4z M286.9,451.6l-13.6,13.9l-13.5-2.1l-2.2-13.6l13.6-13.9l13.5,2.1L286.9,451.6z M282.6,404.4l8.9,17.3
				l-6.2,12.3l-13.5-2.2l-8.9-17.3l6.2-12.3L282.6,404.4z M236.7,394l19.2-3.1l9.7,9.6l-6.2,12.3l-19.2,3.1l-9.7-9.6L236.7,394z
				 M215.5,415.3l12.2-6.3l9.7,9.7l-3,19.2l-12.2,6.3l-9.7-9.7L215.5,415.3z"/>
			<polygon class="st18" points="259.8,416.4 240.9,419.4 238,438.4 255.1,447.1 268.7,433.5 			"/>
			<path class="st18" d="M258.3,466.6l-12.8,6.5l1,3.4c4.3,0.6,8.8,0.6,13.3-0.2c4.5-0.7,8.8-2.1,12.7-4l-0.1-3.5L258.3,466.6z"/>
			<path class="st18" d="M227,405.5l6.6-12.8l-2.9-2.2c-8,4.4-14.4,10.9-18.6,18.8l2.2,2.9L227,405.5z"/>
			<path class="st18" d="M268.7,398.7l14.2,2.2l1.1-3.3c-6.5-6.1-14.7-10.3-23.6-11.9l-2.1,3L268.7,398.7z"/>
			<path class="st18" d="M288.1,436.4l2.3,14.2h3.6c3.7-7.9,5.2-16.9,4-26.1l-3.4-1L288.1,436.4z"/>
			<path class="st18" d="M222.7,461.6l-2.3-14.2l-10.2-10.2l-2.9,2.1c1.6,9.2,5.9,17.3,12,23.6L222.7,461.6z"/>
			<polygon class="st18" points="259.4,412.8 265.6,400.6 255.8,390.9 236.7,394 230.5,406.3 240.3,415.9 			"/>
			<path class="st18" d="M255.3,387.4l1.5-2.3c-3.8-0.3-7.8-0.2-11.7,0.3c-4,0.7-7.7,1.8-11.3,3.3l2.2,1.7L255.3,387.4z"/>
			<path class="st18" d="M294.6,420.1l2.7,0.8c-1.7-8-5.5-15-10.7-20.7l-0.9,2.6L294.6,420.1z"/>
			<path class="st18" d="M212.2,414.7l-1.6-2.2c-3.1,7.1-4.4,15-3.6,23.1l2.3-1.6L212.2,414.7z"/>
			<path class="st18" d="M224.7,464.4l-2.6,0.9c5.8,5.2,13,8.9,20.7,10.6l-0.8-2.6L224.7,464.4z"/>
			<path class="st18" d="M275.8,467.8l0.1,2.7c6.9-4.1,12.4-9.8,16.3-16.6l-2.8-0.1L275.8,467.8z"/>
			<polygon class="st18" points="234.5,438 237.5,418.8 227.7,409 215.5,415.3 212.6,434.7 222.3,444.3 			"/>
			<polygon class="st18" points="236.3,441.5 224.2,447.8 226.3,461.5 243.6,470.2 255.8,464 253.7,450.4 			"/>
			<polygon class="st18" points="271.8,431.9 285.4,434.1 291.5,421.7 282.6,404.4 269.2,402.4 263,414.6 			"/>
			<polygon class="st18" points="257.6,449.8 259.7,463.3 273.3,465.4 286.9,451.6 284.8,438 271.2,435.9 			"/>
			<path class="st3" d="M277.4,201.3c3.2-2.1,7.8-2.6,11.4-3.4c9.4-2.1,19.2-2.9,28.7-4.9c8.5-1.8,17.5-4.2,24.5-9.7
				c3.7-3,6.5-6.6,8.9-10.6c1.7-2.9,3.4-7.9,6.3-9.7c11.3-9.3,19.7-17.9,23.6-32.2c4.5-17.1,0.8-34.1-9.2-48.4
				c-9-13.1-23-21.3-31.6-34.7c-5.4-8.4-9.2-15.7-17.5-21.6c-7.2-5.2-15.5-8.7-24.1-10.9c-16.1-4.1-35.1-4.7-49.5,4.9
				c-1.7,1.1-9.5,6.2-9.5,8.7c0,2.4,5.5,0.2,7.6,0c9.2-1,18.7,0.3,27.7,2.3c8.6,1.8,18.7,4.8,25.7,10.4c3,2.4,8.2,7.1,5.9,11.1
				c-1.8,3.3-7.6,4-11,4.6c-8.8,1.5-18.2,1.6-27,0c-2.2-0.3-4.1-1.6-3.8,0.8c0.4,3.4,8.2,8,10.9,9.5c13.5,7.4,28.9,5.3,43.5,8.9
				c9.1,2.3,17.7,7.3,23.7,14.7c4.1,5,13.2,20.5,6.5,25.9c-6.2,4.9-19.6,1.9-26.5,0c-6.3-1.8-11.8-4.5-17.1-8.1
				c-7.8-5.3-14.6-12.1-20.7-19.2c-3.6-4.1-6.7-8.9-10.4-12.9c-2.5-2.6-2.6-2.2-3.1,1.4c-2.7,18.7,6.6,34.2,18.9,47.2
				c5.8,6.1,13.1,11.1,20.7,14.5c4.2,1.9,8.2,3.7,12.8,4.7c4.1,1,10.6,0.6,10,5.6c-0.8,7.7-12,13.9-18.3,15.9
				c-3.2,1.1-9.8,3.4-13.1,1.9c-2.6-1.3-1.1-6.5-1.6-9.4c-1.5-9.5-6.3-18.5-13.2-25.2c-3.7-3.4-7.8-6.4-12.5-8.1
				c-4.1-1.5-7.6-2.7-4.4,1.9c5.4,7.9,8.7,16.8,7.8,26.7c-0.4,4.4-3,19.2-9.9,17.4c-3.2-0.9-6.7-6.6-9.2-8.8c-3-2.5-5.9-4.4-9.2-6.2
				c-4.7-2.5-3.5-4.1-0.1-7.9c2.9-3.3,6.2-6.1,8.6-9.7c12.5-18.4,4.9-36.4-7.1-52.4c-5.7-7.7-15.6-15.1-17-25.1
				c-1.6-10.9-0.3-21.6-4.9-31.9c-3.6-8-10.2-15.1-18.4-18.4c-2.8-1-8.1-3.3-5.8,0.6c1.7,3.2,4.9,5.4,6.7,8.9
				c3.3,6.9,4.7,16.1,2.6,23.5C211.2,54,200,47.7,192.9,45c-15.5-6.2-34-9.4-49.2-0.1c-2.5,1.5-6.7,4.5-7.2,7.4
				c-0.6,3,1.8,1.5,4.3,0.9c7.4-1.6,15.1-1.7,22.4,0.1c9.3,2.3,18.2,7,24.3,14.4c6.5,7.7,11.3,13.3,20.8,17.1
				c7.7,3.1,16.5,4.6,21.7,11.8c4.7,6.5,6.8,16.5-3.1,18.4c-16.4,3.2-36.3-2.1-49.5-11.9c-3.5-2.6-6.9-5.2-9.7-8.5
				c-1.3-1.5-4.5-7.2-5.9-6c-2.9,2.5,0.7,12.7,1.8,15.5c1.9,4.7,4.8,8.7,8.2,12.4c7.1,7.6,15.9,14.1,25.8,17.1
				c7.2,2.2,22,1.3,24.3,10.4c1.1,4.7-3.4,6.2-7.3,4c-3.3-1.9-5.4-6.9-8.8-9.3c-1.3-0.9-9.7-6.2-11.5-4c-1.3,1.6,3.6,5.8,4.6,7.4
				c2.5,4.2,3.5,6-1.5,5.4c-3.5-0.3-6.9-0.9-10.3-1.8c-3.6-0.9-7.1-2.4-10.3-4.4c-2.3-1.4-5.6-5.6-5.9-1.8
				c-0.8,9.2,10,17.1,17.1,20.4c4.2,2.1,8.5,3,13,4.1c1.4,0.3,2.6,0,3.3,1.4c0.6,1.1-0.4,6.3-0.8,7.2c-1.2,2.7-3,3.1-5.7,2.1
				c-3.9-1.4-7-3.7-11.3-4.4c-10.4-1.6-19.5,2.6-28.9,6c-9.3,3.2-20.2,5.6-30.1,3.8c-2.2-0.3-8.7-4.1-9.7-2.4
				c-1.4,2.3,5.6,8.5,6.9,9.4c13.3,9.8,30.4,6.2,45.2,3.3c8.9-1.7,19.2-1.4,24.6,7.1c1.3,2.1,4.2,8.1,2.5,10.5
				c-0.9,1.3-3,0.7-4.5,1.3c-1.9,0.7-3.4,2.2-4.7,3.8c-2.7,3.2-4.2,7.1-7.1,10.1c-2.6,2.7-5.6,5.2-7,8.8c-0.9,2.4,0.1,4.9-0.6,7.1
				c-0.4,1.1-1.6,1.9-2.5,2.9c-2.7,3.2-4.1,7-5.4,10.8c-1.8,5.2-2.9,10-6.9,13.7c-3,2.9-5.8,5.7-8.8,8.6c-2.1,1.9-1.4,1.4-4,1.9
				c-2.1,0.5-3.8-0.3-5.7,1.3c-3.1,2.5-2.1,6.1-2.2,9.4c-0.1,4.8-2.9,9.2-3.2,14c-0.1,1.8-0.1,4,0.7,5.7c0.6,1.4,2.6,2.5,2.9,3.9
				c0.5,1.8-0.9,4.4-0.6,6.5c0.3,2.2,1.5,4.6,2.5,5.8c1.2,1.8,4.1,2.2,4.7,3.5c0.7,1.6-1,1.1,0.3,5.7c0.7,2.3,3.5,4.4,5,5.3
				c4.2,2.9,11.4,7,15.7,8.1c2.4,0.6,14,1,20.7-2.5c3.5-1.8,8.6-7.8,9.9-10.2c5.2-9.2,12-5.7,16-2.6c2.2,1.7,2.5,4,3.3,6
				c1,2.6,1.4,5.4,0.9,8c-0.6,3.1-2.4,6-4.6,8.1c-1,1-2.3,2.1-3.6,2.7l-4,1c-2.9,4.7,14.4,5.5,17,5.6c-0.9,1.4-8.1,7.4-11,8.8
				c-1.8,0.9-3.8,1.4-5.8,1.6c-0.8,0.1-4.8-0.3-5.2-0.1c-3.3,2.3,11.6,10.4,13.5,11.2c7.6,3.3,15.9,4.7,24.1,4.8
				c2.8,0,5.5,0,8.3-0.3c0.7-0.1,8.9-2.5,9.1-2.2c1.5,1.4-6.1,7-6.9,7.7c-3,2.9-1.3,2.4,3.2,2.6c5,0.2,10.4-0.6,15-2.7
				c2.3-1,6.4-4.9,8.4-5c0.7,0,1.8,7,4.2,11.8c1,2.1,5.4,8.4,8.3,8.5c3,0.1-0.5-5-1-7.6c-0.7-3-1.5-7.9,0.3-10.6
				c4.1,8.7,8.3,15.9,17.1,20.6c4.1,2.2,7.9,3.9,12.5,3.8c3.7,0,4.9,0.1,3.2-2.4c-1.2-1.9-4-3.5-5.4-5.5c-2.9-3.8-4.7-7.9-5.9-12.5
				c-1.1-4.1-1.6-8.4-1.6-12.7c0-1.3-0.2-10.3,1.5-11c1.3,0.5,3,7,3.4,8c1.6,3.4,3.7,6.6,6.2,9.5c3.7,4.2,8.2,7.6,13.3,9.8
				c1.1,0.5,4.5,2.6,5.2,1.4c0.5-0.9-3.6-7-4-7.8c-2.9-7.2-3.2-15.2-1.7-22.8c2.6-13.3,12.1-28.7,26.4-31.4
				c2.8-0.5,8.4,1.5,10.5,0.1c1.6-1,1.9-9.3,2.1-11.1c0.3-4.8,0-9.6-0.8-14.3c-0.5-3-3.2-7.9-2.8-10.9c3.1-0.2,6.8,7.7,6.8,7.7
				s0.4-0.3,0.9-2.9c1.3-6.1-0.1-12.8-2.4-18.4c-4-10.3-11.7-19.1-20.6-25.5c-3.9-2.7-8.2-4.6-12.5-6.4c-3.3-1.4-2.8-1.4,0.2-3.9
				c2.2-1.7,2.7-3.1,2.7-3.1s-3.9,0.1-7,0.2c-2.7,0.1-14.9-0.1-15.7-3.7c0-0.2,12.7-2.9,14-4.1c5.4-5.8-3.9-15.1-7.8-18.8
				c-6.2-5.7-13.8-9.8-21.8-12.4c-3.1-0.9-6.2-1.9-9.4-2.3c-3.5-0.5-8.2,0.6-11.5-0.6c-0.7-0.2-4.8-3.2-5-3.9
				C275.3,202,275.3,202.6,277.4,201.3 M236.7,190c-0.3,2.2-3.1,1.9-4.6,2.3c-1.2,0.2-5.4,2.5-6.4,2.3c-1.6-0.3-0.3-2.4-0.1-4.1
				c0.4-2.4,0.4-4.9,1.3-7.2c1-2.5,2.8-4,4.6-6c2.1-2.2,2.5-2.9,4.4,0C238.6,181.2,238.6,185.9,236.7,190"/>
			<path class="st19" d="M219.5,311.1c0,0,0.5-9.5-1.8-9.6c-4.6,1.4-9.7,3.5-11.5,5.6c-3.9,4.6-3.9,5.4-7.2,9s-5,5-8.2,7.6
				c-3.2,2.5-12.8,10.6-19.1,11.4c-6.4,0.8-8-1.3-11.8-3.2c-3.9-1.9-9-2.6-10.4-3c-1.3-0.3-2.6-1-2.1,1.8c0.5,2.9,4.8,6.5,11.3,9.7
				c6.5,3.1,11.8,3.9,19.1,2.5c7.3-1.5,10.5-4.4,13.4-8.1c2.7-3.3,4.6-5.6,7.1-7.7c2.6-2.1,11.1-5.3,15.2-7.7
				C217.5,317.3,219.5,311.1,219.5,311.1"/>
			<path class="st4" d="M378.2,122.6c3.1-21.4-8.4-39.6-24.1-52.8c-4-3.3-8-6.6-11.3-10.8c-3.7-4.6-6.3-10-9.4-14.9
				c-5.4-8.2-13-14.7-21.8-18.9c-9.9-4.8-21.1-7.3-32.2-7.4c-5.1-0.1-10.4,0.3-15.3,1.5c-2.6,0.6-4.9,1.5-7.2,2.9
				c-3.1,1.7-0.8,1.4,1.7,1.5c9.2,0.6,18.5,2.5,27.1,5.6c8.9,3.2,20,7.3,25.2,15.8c1,1.7,1.9,5.4,3.2,1.4c0.2-0.6,0-2.9,0.3-3.2
				c0.9-0.8,1.4,1.3,1.6,1.8c2.2,5.8-2.8,10-7.5,12.5c-10.5,5.5-24.1,5.8-35.5,3.7c0.3,1.9,5.9,3.4,7.5,4c2.8,1.1,5.8,2.1,8.8,2.6
				c7.3,1.6,15,1.5,22.4,1.9c13.2,0.9,24.7,7.1,32.9,17.4c3.6,4.5,6.8,9.8,8.9,15.2c1.8,4.6,4.5,11.7,1.5,16.3
				c-3.8,5.7-12.5,6.3-18.7,6.1c-7.3-0.2-15.6-1.6-22.4-4.6c-13.3-5.7-24.6-16.1-33.8-27.1c-0.8-1-4.2-6.4-5-5.3
				c-0.3,0.5,1.1,4.2,1.2,4.8c0.5,1.8,1,3.7,1.7,5.5c2.3,6.2,5.4,12,9.5,17.3c8.6,10.9,20.2,19.3,33.6,23.1
				c6.3,1.8,14.8,2.5,20.2,6.3c2.1,1.5,3.4,3.4,3.2,6.1c0,0.6-0.3,3.4-1.2,3.5c-0.9,0.2-0.9-2.1-1.2-2.7c-0.5-1.1-2.2-3.1-3.7-2.4
				c-1.1,0.5-1.6,3-2.1,4c-1.1,2.9-2.8,5.5-4.7,7.8c-4.4,5.3-10.7,8.2-17.3,9.8c-4,1-8.3,1.6-12.4,1.9c-1.4,0.1-2.6-0.1-3.6,0.8
				c-2.4,2.1-3.8,5.6-6.1,7.9c-2.5,2.5-5.9,5.7-9.4,6.5c0.2-1.4,3.2-3.1,4.1-4c1.7-1.8,3.2-3.9,4.4-6.1c1.3-2.4,2.9-5.5,3.2-7.4
				c1.7-10.9,0.3-14.9,0-16.3c-0.6-2.5-1.6-5-2.9-7.3c-3-5.7-7.4-10.1-12.4-14c-0.3,1.1,1.4,3.9,1.8,5c1,3,1.7,6,2.2,9
				c0.6,6.1-0.1,12.4-2.3,18.1c-0.9,2.5-2.2,4.9-3.9,7c-0.7,0.8-1.4,1.7-2.3,2.3c-0.7,0.5-3.4,1.3-3.5,1.9c-0.2,1.5,4.3,2.1,3.7,3.1
				c-0.7,1-5.7-0.9-6.7-1.4c-4.4-2.3-7.2-7.6-10.6-11c-4.2-4.2-9-7.8-14.5-10.3c-11.5-5.3-23.8-4-36.1-4.4c-7.1-0.1-14.3-0.9-21-3.1
				c-0.9-0.3-6.1-3.1-6.6-2.7c-1,0.5,1.3,3.2,2.3,3.9c5.3,4.1,16.1,8.9,24.7,10.2c8.3,1.3,17.5,2.4,25.2,6.9
				c8.7,5,13.3,14.9,9.3,24.6c-0.9,2.3-2.3,4.5-3.7,6.4c-0.2,0.2-2.8,2.6-2.7,3c0.3,1,5.7,1.6,6.7,1.9c1.6,0.6,3.3,1.4,4.8,2.3
				c1.9,1.1,2.8,2.1,5.1,1.8c2.3-0.1,4.9,0.3,7,0.1c2.2-0.2,3.6-2.2,5.2-3.5c1.6-1.4,3.4-2.5,5.2-3.5c9.3-5.3,19.9-7.4,30.5-9
				c9.9-1.6,20.6-2.2,29.9-6.3c8.2-3.5,13.3-8.5,18.3-15.9c2.8-4.1,5.2-7.6,9-10.9c3.9-3.4,7.7-6.6,11-10.6
				C373,141.2,378.2,131.7,378.2,122.6 M240.4,168.5L240.4,168.5C240.5,168.5,240.5,168.5,240.4,168.5 M240.2,194.9
				c0.2-0.5,0.4-0.8,0.6-1.3C240.6,194.1,240.4,194.5,240.2,194.9"/>
			<path class="st4" d="M170.7,51.5c7.1,3,13.2,7.3,18.6,12.8c3.2,3.2,5.4,7.1,8.8,10.1c5.3,4.6,11.9,7.4,18.6,9
				c6.2,1.4,11.7,4.7,15.4,10c1.9,2.7,3.1,6,4.3,9c0.3,0.9,0.8,3.1,1.8,3.5c2.2,0.9,1.6-1.7,2.5-2.4c2.1-1.8,1.3,4.4,0.8,5.6
				c-1.3,3.2-4,5.7-7.1,7.2c-6.9,3.4-15.1,3.7-22.6,3c-8.6-0.8-17.5-2.9-25.2-6.8c-4-1.9-8.1-4-11.7-6.6c-1.5-1.1-3.1-2.3-4.5-3.5
				c-1.4-1.3-3.1-3.4-4.7-4.2c1.1,3.3,2.7,6.4,4.5,9.4c4.5,7.3,17.3,18.1,25.3,21.1c8.8,3.3,18.7,2.9,27.3,6.8
				c2.6,1.1,5,2.9,6.3,5.5c0.2,0.5,1.4,3.7,0.9,4.2c-1.1,1.1-1.9-2.5-3.2-2.7c-1.4-0.1-0.4,1.8-0.4,3.1c0.1,2.7-0.8,3.4,2.1,4
				c4,0.8,7.9,1.4,11.8,2.5c0.9,0.2,1.8,1,2.8,0.5c0.7-0.6,1.5-3.9,2.2-4.8c2.5-3.7,6.1-6.4,8.9-9.7c6.1-7,8.4-15.1,6.7-24
				c-1.6-8.6-5.5-16.3-10.5-23.5c-2.6-3.8-5.4-7.4-8.4-10.8c-3.1-3.4-6.6-6.5-8.7-10.6c-4.7-9-1.3-20.1-3.8-29.8
				c-1.1-4.5-2.4-8.7-4.7-12.7c-2.6-4.4-11.3-10.9-11.3-10.9s2.1,4.1,2.6,5.6c0.8,2.4,1.5,4.7,1.9,7.2c0.9,4.4,1.1,8.9,0.5,13.3
				c-1.1,8.4-5.4,13.4-14.2,11.2c-9.3-2.3-17.8-6.8-27.4-8.5c-4.8-0.8-9.6-1.1-14.5-0.5c-1.3,0.2-13.1,2.5-12.8,4
				C149.7,47.9,164.8,48.8,170.7,51.5"/>
			<path class="st4" d="M203.7,141.2c-2.1-1.8,0.1,2.3,0.3,2.7c1.2,2.5,0.7,4.1,3.8,4.4c2.2,0.1,2.4,0.1,1.5-1.5
				C208.3,144.8,205.5,142.8,203.7,141.2"/>
			<path class="st4" d="M229.9,172.8c1.9-1.7-3.6-3.3-4.7-3.8c-0.8-0.2-4.3-2.1-5.3-1.8c-1.5,0.3-1.1,3.5-1.2,4.9
				c-0.4,3.3-0.5,7.3-1.2,10.5c-0.7,3-1.3-0.3-1.5-2.1c-0.5-3.4-0.2-6.9-0.2-10.3c0-3.1,0.4-4-2.7-4.6c-3.1-0.6-4.5-1.6-4.7,1.8
				c-0.2,3-0.6,6-1.9,8.6c-0.5,1-1.7,2.3-1.6,3.5c0,1.3,1.5,2.5,2.1,3.8c0.6,1.8,1.4,5-0.8,2.9c-2.3-2.1-3.9-4.5-6.5-6.3
				c-9.9-7.2-23.1-6.4-34.1-2.2c-12.8,5-26.1,9.2-39.9,5c9.7,7.4,20.9,7.9,32.7,6.2c12.1-1.7,25.6-6.3,35.8,3.1
				c3.9,3.7,6.9,8.9,6.9,14.4c0,1.6-0.8,3.3,1.1,3.9c1.2,0.3,3.9-1.5,5.1-2.2c2.1-1.3,4.1-2.9,5.9-4.4c1.9-1.5,5.3-3.3,6.8-5.3
				c1.7-2.5,1.7-8.2,2.2-11.1c0.2-1.8,1.3-6.1,1.8-7.1C225,177.5,227.4,175,229.9,172.8 M138.8,189L138.8,189L138.8,189"/>
			<path class="st4" d="M220.8,234.7c0,0,0.6-5,4.5-9.2c3.9-4.1,8.1-7,10.2-7.8c1.9-0.8,3.8-2.3,4.7,1.6c0.7,3,0.9,4.9,0.2,6.8
				c-0.7,1.7-1.4,3.2-3.9,4.4c-2.5,1.1-9,1.7-11.8,2.5C222.2,233.9,220.8,234.7,220.8,234.7"/>
			<path class="st3" d="M236.3,224.6c0.1,3.3-2.4,6.1-5.5,6.2c-3.2,0.1-5.8-2.4-5.9-5.7s2.4-6.1,5.5-6.2
				C233.5,218.9,236.2,221.4,236.3,224.6"/>
			<path class="st4" d="M232.8,222.4c0.4,0.7,0.2,1.5-0.5,1.9c-0.6,0.3-1.5,0.1-1.8-0.6c-0.4-0.7-0.2-1.5,0.5-1.9
				C231.5,221.5,232.5,221.7,232.8,222.4"/>
			<path class="st20" d="M184,289.2c-0.1,0.3-0.2,0.8-0.3,1.1c-0.9-1.9-1.9-4.8-4-6c-2.4-1.4-5.5-0.1-7.1,1.9
				c-1.9,2.9-2.7,7.2-3.7,10.4c-1.1,3.5-2.7,6.9-5.4,9.4c-5,4.7-12.7,4.8-18.6,1.6c-6.9-3.8-6.1-9.7-4.7-16.5
				c-3.4,7.6-5,17.6,4.4,21.1c0.3,0.1,1.7,0.1,1.9,0.6c0.3,0.9-1.9,0.8-2.1,0.9c-1.2,0.9-0.4,2.4,0.4,3.7c1.6,2.5,5,4.2,7.9,5
				c4.3,1.1,8.5,0.1,12.1-2.4c3.4-2.4,7.7-3.8,10.7-6.9c3.1-3.2,4.8-7.1,6.5-11.2c0.7-1.8,1.2-3.7,1.5-5.6
				C183.9,294.9,184.9,290.8,184,289.2"/>
			<path class="st21" d="M183.8,284.8c-1.2-3.7-3-6.5-7.1-6.4c-5.1,0.1-8.4,6-10.6,10c-1.7,3.1-2.9,3.3-6.4,3.5
				c-3.1,0.2-6.2-0.1-9.1-1c-1.8-0.6-6.1-2.1-5.5-4.5c0.2-1.1,3.1-4.6,1.9-6c-0.8-1-3.9,0.2-4.6,0.9c-2.5,2.4-1.7,4.9-1.8,7.8
				c-0.3,4.5-2.4,9-0.7,13.6c1.7,5,8.1,7.2,13,7.7c5.4,0.5,10.2-1.8,13.3-6.2c2.1-2.9,3-6.2,4-9.4c0.8-2.7,1.5-6.6,3.6-8.7
				c4.7-4.8,8.7,3.2,10.5,7.3C184.6,291.8,184.5,286.4,183.8,284.8"/>
			<path class="st22" d="M140.2,291.3"/>
			<path class="st3" d="M178,300.9c0.3-1.7,0.2-3.4-0.2-5.2c-0.3-1-2.1-3.3-1.6-4.2c1.4-3.2,3.6,3.3,3.9,4c0.4-2.9-1.2-10.4-5.5-6.9
				c-1.6,1.4-1.5,4-1.7,6c-0.3,2.7-0.6,5.4-1.4,8c-1.2,3.7-3,7.3-5.9,10c-4,3.3-7.9,3.7-12.6,2.3c2.4,3,6.1,3.3,9.4,1.8
				c1.7-0.8,2.9-2.3,4.4-3.1c1.3-0.7,3.1-0.5,4.3-0.9C175.7,311,177.4,305.1,178,300.9"/>
			<path class="st23" d="M292.4,308.4c-1.5-2.2-5.9-7.1-5.9-7.1s1.9,6.3,2.7,9.3c0.7,3.2,1.1,6.4,1.2,9.6c0.2,6.2-1,12.4-2.6,18.3
				c-0.3,1-1.1,2.9-1.1,2.9s-0.5-7.9-0.5-10.5c0-5.3-6.1-18.1-6.1-18.1s1.5,5.5,1.4,11.3c-0.1,7.4-3.7,12.1-3.7,12.1
				s-0.1-4.1-0.9-6.6c-1.4-4.6-4.1-9.3-4.1-9.3s0.4,4.6,0.5,5.3c0.2,3-0.4,6.1-0.8,8.9c-0.9,5.6-2.7,10.5-5.1,15.6
				c-0.3,0.7-1.4,4.4-2.3,2.6c-0.5-1,0.5-4.5,0.6-5.5c0.3-3,0.4-6.8,0.3-8.9c-0.3-5.2-2.2-9.7-2.2-9.7s0.5,7.3-2.4,14.8
				c-1.2,3.2-3.8,7.6-6.8,12c-2.6,3.8-5.4,7.4-8.8,10.6c-2.8,2.6-6.1,6.2-9.9,6.8c0.3-0.7,1.6-2.3,3-3.8c2.3-2.9,2.8-4.4,3.8-6.4
				c1.4-3.1,2.6-6.4,3.2-9.7c0.6-3.1-0.3-2.4-1.4-0.1c-1.6,3.3-3.5,4.8-7,9.5c0.3,0.1,1.2-0.6,1.5-0.7c-1.8,3.1-2.9,6-5.6,8.5
				c-2.7,2.4-5.4,4.7-8.8,6.1c-0.8,0.3-4,0.9-4.2,1.9c-0.2,1.4,3,1.7,3.9,1.8c3.9,0.3,7.9-0.7,11.6-1.8c6.7-2.2,12.5-6.4,17-11.8
				c2.4-2.9,4.4-6,6.2-9.3c0.5-1,1.7-5.8,2.9-6.2c-0.2,4.8-2.9,9.4-5,13.6c-0.6,1.3-7.2,10.3-0.9,5.8c7.9-5.8,14.2-14.1,17.3-23.2
				c-0.1,4.5-2.3,9.3-4.2,13.3c-0.8,1.7-3.9,7.7,0,4.1c6.2-5.7,10.5-14.8,12.7-22.7c1.2,5.3-0.5,11.9-2.1,16.9
				c-1.7,5.6-4.1,11.7-7.6,16.5c-1,1.5-6.1,7.1-0.6,4c3.7-2.1,6.9-5.7,9.8-8.8c7.3-7.9,12.6-17.4,15.7-27.7
				c1.5-5.3,3.1-11.4,2.9-17.1C299.2,319.4,295.7,313.3,292.4,308.4"/>
			<path class="st23" d="M323.7,234.2c-5.3,0.1-8.3-3.5-12.1-6.9c-8.3-7-18.3-11.3-29.3-10.2c-3,0.3-5.9,1-8.9,1.3
				c-2.6,0.2-4.9-0.3-7.4-0.3c-1.3,0-2.4,0.1-0.9,1.5c1.2,1.3,3.8,0.9,5.3,1.6c-3.4,1.3-7.8-0.9-10.7-2.5c-0.8-0.5-2.6-2.2-3.7-1.8
				c-1.7,0.5,0.1,2.2,0.9,2.6c4,2.2,8.3,3.7,12.8,4.6c2.1,0.5,3.9,0.7,5.9,0.3c0.4-0.1,7.6-0.5,8.6-0.6c1.5-0.2,1.7-1.7,6.7-0.8
				c7.1,1.6,11.5,5.3,17.6,8.9c6.6,3.3-4.8,6.3-4.1,6.2c-7.5,3-16.6,3.1-23.7-0.9c-3.6-2.1-6.1-5.7-9.5-7.7
				c-2.6-1.4-6.9-0.7-3.6,2.5c-2.4-1.1,1,2.2,1.3,2.4c0.8,0.8,1.7,1.6,2.7,2.4c2.4,2.1,4.7,4.1,7.2,5.8c4.3,3.1,10,5.7,15.5,4.9
				c-0.1-0.3-0.6-0.1-0.9-0.2c4.7,0.2,9.6-1.9,13.8-3.5c4.8-1.8,9.6-3.5,14.7-4.6c1.8-0.3,4.7-0.7,5-3.1
				C327.4,233.7,325.5,234.2,323.7,234.2"/>
			<path class="st23" d="M364.4,287.9c-2.9-5.8-9.7-10.6-15.3-13.7c-6.1-3.4-12.8-5.5-19.6-6.9c-0.7-0.1-6.2-1.7-6.2-0.1
				c0,0.9,2.5,1.1,3.1,1.4c1.8,0.6,8.8,2.4,3.2,2.7c-10.2,0.6-21.1-4.1-29.1-10.1c-1.6-1.1-2.3-1.4-0.9-2.4c1.2-0.9,3.8-1,5.3-1.6
				c3-1.1,5.8-2.7,8.8-3.9c0.6-0.2,6.6-0.8,6.8-1.4c-3.6-1.1-7.8-5.3-11.6-4.5c-4.5,0.9-8.6,3.1-13.2,3.5
				c-8.9,0.9-16.4-4.5-23.4-9.3c-4.6-3.4-8.9-11.7-12.6-9.7c-0.9,0.5-0.7,3.9-2.1,4c-0.9,0.1-1.5-3.1-1.7-3.5
				c-0.4-1-1.5-4.1-2.9-3.9c-0.8,0.1-1.7,2.3-2.4,2.9c-1,1-4,2.7-2.7,0c0.9-1.9,2.5-3.3,3.1-5.6c0.4-1.8,0.9-3.8,1-5.6
				c0.2-3.5-1.1-7.1-3.8-9.3c-1.8-1.6-6.9-4.9-9.4-4.6c0.5,1.4,3.2,1.5,4.3,2.2c1.3,0.7,2.8,1.8,3.2,3.2c0.7,2.5-3-0.3-4.4-0.7
				c-5.9-1.4-14.2,2.9-18.8,7.3c-5.5,5.4-7.8,12.9-11.3,19.6c-1.6,3.1-4.4,4.8-8,5c-1.3,0.1-3.6,0.2-4.9-0.6
				c-0.2-0.1-1.2-2.4-1.5-1.7c0,5.8,6.7,5.8,10.8,4.7c8-2.3,8.2-10,11.4-16.6c3-6.2,8.2-12.4,14.8-14.9c3.1-1.1,7.1-1.5,9.4,0.8
				c1.1,1.1,5.7,5.3,4.7,6.9c-0.2,0.2-3.2-3-4.1-3c-2.1,0-1.8,2.1-1.6,2.6c0.6,1.8-0.1,5.8-0.8,7.6c-1.7,4-9.5,5-13,6
				c-3,0.8-8,3.2-10.8,5.7c-3.5,3.3-4.1,5.7-4,10.4c0.1,4.2-3.9,15.6-10.5,20c-6.6,4.7-11.2,15.3-11.2,15.3s1.2-9.7,10.9-17.5
				c4.8-3.9,7.9-10.2,8.3-16.5c0.1-1.6,0.3-4.4-1.3-4.7c-1-0.2-3.5,1-4.6,1.1c-2.8,0.3-5.7,0.1-8-1.8c-0.9-0.8-2.7-4.8-3.7-2.4
				c2.3-0.8,1.6,1.8,2.5,3.3c1.2,2.2,3.4,3.3,5.6,4c1.3,0.3,3.3,0.3,4.1,1.6c1.2,1.7-0.7,4.2-1.5,5.8c-1.6,3.3-3.9,5.8-6.6,8.2
				c-0.8,0.8-6.2,4.8-5.7,6.2c0,0.2,2.6-2.5,2.7-2.2c0.3,1.4-2.5,5.3-3.1,6.5c-1.3,2.9-2.1,5.7-2.4,8.9c-0.1,1.4-1,8.8,1,9
				c1.1,0.1,4-9.3,4.5-10.3c2.9-6.4,10.6-12.6,15.7-17.1c6.2-5.4,5.9-10.5,9.9-17.3c1-1.7,2.3-3,3.6-4.1c1.3,1.3,5.9,2.1,19.2-0.5
				c0.5,3.8,6.2-3.1,10.9-1.7c4.5,1.3,3.9-4.8,5.3-6.9c1.2-1.7,1.4-1.8,3.4-0.2c3.8,2.9,7.2,6.5,10.6,9.8c3.5,3.5,2.2,8.7,3.9,13.2
				c-0.6-0.7-1.7-5-2.9-4.9c-1,0.1-0.3,1.9-0.2,2.7c0.5,2.4,1,5.2,2.2,7.3c0.7,1.5,1.4,1.1,1.3,3c-1,0.2-3.4-3.1-4.5-3.7
				c-3.6-1.9,2.6,3.2,2.8,3.8c-1.1-1-1.5-1.4-2.2,0.9c-0.2,0.7,0.4,2.1,0.7,2.6c0.1,0.1,1.4,2.5,1.1,0.7c0.3,0.5,0.2,1.4,0.9,1.6
				c0.6-1.1,4.2-0.2,5.3,1.3c1,1,5,6.6,5,6.6s-0.4-4.6-1.9-8.1c-1.4-3.1-4-5.2-3.8-5.6c0.5-1.7,10.5,5.2,10.5,5.2s-0.3-1.8-1.3-3.2
				c-1.9-2.5-4.6-6.2-5.6-8.6c-0.2-0.5-3.1-7.1-3.1-7.1s5.2,4.8,5.8,5.5c1.4,1.6,3,3,4.6,4.4c3.4,2.7,7.1,5.2,11,7.1
				c3.9,1.9,8.1,3.4,12.5,4.2c2.4,0.5,4.7,0.7,7.2,0.8c1.6,0,6.8-0.3,6.8-0.3s-5.1,3.2-8.2,4.2c-3.6,1.3-9.3,1.5-9.3,1.5
				s5.1,6.4,5.7,7.2c2.8,4,4.9,8.5,6.5,13.1c1,3.2,1.6,6.5,1.9,10c0.1,0.9-0.2,6.1-0.2,6.1s-2.2-4.8-2.8-6c-1-2.1-2.4-4-3.7-5.8
				c-0.6-0.9-8.6-10.5-8.6-10.5s1.8,7,1.9,10.6c0.1,2.2-0.5,7.9,1.2,9.7c5.3,5.5,10.5,12.6,10.5,20.6c0,1.3-0.8,6-0.8,6
				s6.1-6.5,6.8-9.2c1.3-4.6,0.3-12.1,0.5-16.8c0.1-2.1,0.2-4.1,0.1-6.2c-0.1-2.1-0.9-4.2-0.6-6.3c1.3,1.7,2.4,3.4,3.2,5.4
				c0.7,1.6,0.9,4.1,1.8,5.5c0.8-6.6,0.1-13.4-2.5-19.5c-1-2.4-3.2-4.8-4.3-6.9c-0.7-1.3-1.9-2.5-2.6-3.9c10,2.4,18.8,9.3,23.6,18.3
				c1.2,2.3,2.2,4.7,3,7.2c0.5,1.5,1,9,2.2,9.7c4.2,2.5,2.9-13.5,2.7-15c-0.5-5.6-2.4-11-4.6-16.1c-0.8-1.9-1.9-3.5-3.4-5.2
				c-0.7-0.8-2.9-2.9-2.9-2.9s3.6,0.2,7,2.5c4.6,3.1,9.2,7,12.8,11.2C367.5,294.4,365.1,289.3,364.4,287.9"/>
			<path class="st23" d="M163.4,331.7c6.7,4.1,16.2-2.4,21.4-6.2c6.2-4.5,13.5-11.9,16.4-17.1c3.7-6.8,9.6-28.5,8.4-29.4
				c-1.1-0.9-11.1,22.3-15.9,34c-2.9,7.1-6.7,6.9-13.4,11.7c-2.2,1.5-8.7,6.2-11.5,5.3c-2.8-1-2.6-4-0.5-5.6
				c1.8-1.5,3.4-1.9,6.6-2.9c4.4-2.5,7.3-6.9,8.7-11.7c0.2-0.8-3.5,4.6-9.6,8c-3.3,1.8-6.6,2.9-9.7,5c-3.6,2.5-7.7,3.4-12.1,2.4
				c-4.1-1-6.9-3.4-9.1-6.8c-0.5-0.8-1.6-3.2-2.6-2.4c-0.9,0.8,0.7,4.7,1.1,5.5c1.8,3.5,5.1,4.9,8.9,5.8
				C155.1,328.4,159.6,329.3,163.4,331.7 M147.6,323.5c0.4,0.2,0.7,0.5,1.1,0.7C148.3,324,147.9,323.7,147.6,323.5"/>
			<path class="st23" d="M229.1,345.4c0.5-1.3,0.7-4.9,2.8-4.1c1.5,0.7,2.2,6.4,2.3,7.7c1-5,0.3-10.2-2.4-14.5
				c-0.8-1.4-3.5-5.2-3.5-5.2s0.6,3.8,0.4,5.8c-0.6,4.7-1,6.4-3.1,10.8c-1.1,2.4-2.7,4.8-4.4,6.9c-1.7,2.1-4.4,3.1-5.9,5.2
				C221.7,356.7,226.4,351.3,229.1,345.4"/>
			<path class="st19" d="M267.6,229c3.2-1.9,9,5.7,11.3,7.2c7.4,5.2,18.7,5.7,26.8,1.6c3.6-1.5,4.3-1.8,5-3.3
				c0.4-3.9-4.2,1.8-10.6,2.9c-4.7,0.8-9.3-0.7-11.4-0.9c-2.8-0.3-5.3-1.3-7.8-2.6c-2.9-1.6-4.8-4.9-7.9-5.8c-2.1-0.6-6.4-0.6-8,0.9
				c-1,0.9-0.9,1-0.4,1.6c0.5,0.5,1.6,1.1,2.3,1.4c1.4,0.8,2.4,2.4,4,2.9C271.3,232.6,264.6,230.9,267.6,229"/>
			<path class="st19" d="M260.4,222.3c4.6,1.6,9.2,3.3,14.2,3.2c1.4,0,6.6,0.1,8-0.5c3.3-1.5,2.9-1.7-1.9-1.7
				c-6.5,1.1-11.9,0.8-18.3-1.5c-1.6-0.6-3.7-1.4-5.1-2.3c-1.3-0.9-2.9-1.8-0.7-1.9c1.2-0.1,3.6,1.9,4.6,2.4c2.2,1,4.6,1.7,7.1,1.8
				c0.9,0,3.5,0.3,2.3-1c-1.3-1.5-4.5-0.2-6.2-2.2c1-0.8,5.2,0.5,6.6,0.5c2.8,0,5.5-0.6,8.3-0.9c5.1-0.8,10.2-0.7,15.2,0.5
				c4.7,1.1,9.1,3.2,13.1,6.1c3.7,2.6,6.7,6.4,10.7,8.7c1.7,1,3.4,1.5,5.3,1.5c1.2,0,2.5-1,3.2,0.5c1.7,3.5-7.2,4.4-8.6,4.8
				c-5.2,1.5-10.2,3.7-15.3,5.3c-1,0.3-11.8,2.1-11.8,1.7c-0.5,2.4,14.5-1.6,14.7-1.7c3.8-1.4,7.6-3,11.4-4.1
				c2.8-0.8,6.3-0.9,8.8-2.1c7.3-3.5-7.2-13.6-10-15.9c-9-7.3-19.8-11.3-31.6-10.9c-7.5,0.3-14.2,1-21.5-0.5c-2.4-0.5-5.2-1.6-7.7-1
				c-3.4,0.8-1.8,1.8-0.9,4.9C255.3,220,256,220.8,260.4,222.3"/>
			<path class="st19" d="M362.4,302.7c-1.6-3.2-8.8-12.7-8.8-12.7s2.5,6.8,2.7,7.4c1.2,4.1,2.1,8.6,1.9,12.9
				c-0.1,1.8-1.9,9.7-1.9,9.7s-1.1-3.9-1.4-5.7c-1.6-7.6-5.7-15.3-11.8-20.1c-2.6-2.1-5.1-4.9-8.2-6.2c-4.1-1.7-9.8-3.7-9.8-3.7
				s7.3,9.3,8.8,12.8c1.8,4.1,3.1,12.3,2.4,18.1c-1.7-8.6-5.4-12.3-5.4-12.3s0.8,5.7,0.9,11.3c0.1,5-0.4,10.1-1.5,15
				c-0.7,3.2-1.6,6.6-4.4,8.7c0.6-3.3,0.5-9.6-2.4-15.3c-2.7-4.8-9.5-10.6-9.5-10.6s-0.3,10.4-0.9,13.6c-0.8,4-2.1,7.9-3.7,11.6
				c-1.5,3.8-3.5,7.3-5.7,10.6c-1.4,2.2-4.2,7.7-6.8,8.5c0.4-0.1,2.2-7,2.5-7.8c0.9-2.9,1.6-5.4,1.8-8.4c0.3-4.9,0.9-13.4-1.8-19
				c0.3,9.3-1.7,21.2-5.6,29.8c-2.5,5.5-5.6,10.6-9.3,15.3c-1,1.3-2.1,2.4-3,3.5c-2.2,1.7-7.4,7.2-9.7,8.8c-0.3,0.2-1.9,1.7-2.3,0.8
				c-0.2-0.8,4.3-6,4.7-6.6c1.9-3.4,3.4-6.8,4.6-10.4c0.2-0.6,3.1-4.5,3.6-8c0.9-6.3-0.4-13.4-0.4-13.4s-2.4,6.3-2.8,7.3
				c-1.6,4-4,7.8-6.7,11.3c-0.9,1.1-4.1,6.3-5.3,5.7c0.4,0.2,3.3-6.4,4.4-9.4c1.2-3.9,2.8-8,1.8-8.4c0.1,0-5,9.6-5.7,10.5
				c-3.1,4.1-7.6,9.5-11.9,12.1c-4.1,2.5-0.4-2.2,0.4-3.7c0.8-1.4,7.7-16.3,5.9-16.7c-0.1,0-8.3,14.4-9.4,15.9
				c-5.2,6.4-12.3,11.2-20.5,12.7c-2.1,0.3-8.2,2.1-10,0.7c-2.3-1.8,2.3-2.5,4-3.4c3-1.6,5.6-3.4,8.4-6.3c1.3-1.4,5.9-7.8,5.4-10.1
				c-1.5,1.5-3.1,4.1-3.8,4.9c-1.3,1.4-3,2.7-4.5,4c-3.2,2.6-6.7,4.8-10.5,6.4c-0.9,0.5-9.2,2.3-9.3,2.9c-0.1,0.9,7.7,3.5,8.4,3.8
				c3.7,1.1,7.4,2.1,11.3,2.5c5.5,0.7,11.5,0.6,17-0.7c3.5-0.8,6.9-2.1,10.2-3.5c3.3-1.6,9.3-8.5,10-7.7c0.9,1-2.1,7.3-3.3,9.3
				c-0.8,1.1-5.5,6-4.1,7.1c1.2,1,7.3-4.2,8.2-5.2c3.4-3.2,8.7-7.2,9.8-6.3c0.8,0.7-0.3,6.5-0.5,8.2c-0.6,3.3,3.3,19.8,3.9,4.7
				c0.1-3,3.4-11.9,6.1-13.4c1.1-0.7,2.8-1,3.5-0.5c0.9,0.8-0.7,15.9,2.4,21.3c2.5,4.1,11.8,12.6,14.2,11.1c0.6-0.3-2.2-4.2-3.7-7.2
				c-0.3-0.7-0.6-1.3-0.7-1.5c-0.6-1.9-1.5-4.5-1.9-6.2c-2.5-11.8-0.2-25.6,5-36.4c0.9-1.9,2.4-6,4.1-7.2c1.7-1.3,1-0.7,1.2,0.9
				c0.2,1.8-0.7,3.8-0.9,6.1c-0.1,3-0.1,5.8,0.4,8.8c1.4,8.1,5.6,17.9,12.3,23.4c3,2.6,1.6,0.7,0.7-0.8
				c-10.4-16.5-6.1-26.9,11.9-36.6c4.5-2.4,15.3,1,20.3,0.7c3.4-0.2,19.1,5.8,19-6.3c0-1.9,2.4-7.1,1.8-12.9
				C377,328.8,364.3,306.4,362.4,302.7"/>
			<path class="st19" d="M366.5,290.2c-1.6-3.7-4-7.1-6.4-10c-4.4-6.2-13.6-14.8-20.3-17.9c-3.7-1.7-7.7-2.7-11.7-3.7
				c-4.5-1-11.8,0-11.8,0s9.7-1.8,12-4.9c-0.3,0.5-7.3-1.5-8-1.7c-1.9-0.7-5.2,0.5-8.4,1.9c-5.3,2.5-15.2,4.8-15.2,4.8
				s11.3,8.4,16.4,10.1c3.4,1.1,7,2.2,10.7,2.5c1.5,0.1,11.3-0.2,11.3-0.2s-10.4-3.4-11-4.1c16.4,1.4,36.5,17.1,39.4,21.8
				c1.2,2.1,3.7,7,3.7,7S367.3,292.1,366.5,290.2"/>
			<path class="st19" d="M267.1,209.6c2.5,0.2,11.3,0.9,6.6-2.9c-1.6-1.3-2.4-1.6-4-0.9C269.2,206.2,265.5,209.4,267.1,209.6"/>
			<path class="st19" d="M231.2,337.9c0,0-1.4,4.6-2.1,6.2c-0.8,2.1-2.6,5.5-4.6,7.7c-0.3,0.2-2.2,3.2-6.5,5.2c4.8,0.3,8.9-4.8,10-6
				c1.7-1.8,2.2-2.5,2.1,1c-0.1,1.5-2.6,7-1.5,8.1c0.4,0.5,4.5-7.4,4.8-8.2C235.5,346.7,231.2,337.9,231.2,337.9"/>
			<path class="st19" d="M275,268.8l4.8,3.1c0,0-0.9-2.3-1.6-4.7c-1.1-4.2-3.6-5.8-3.4-10.6c1.8,0.6,3,5.3,3,5.3s0.2-6.4-0.4-8.5
				c-2.5-8-13.8-16.9-15.3-17.1c-2.2-0.1-3.8,2.2-5.4,6.6c-2.4-0.9-4.3-0.2-6.8-0.3c-3.6-0.1-6.8-0.1-10.2,1.1c-1.9,0.7-4-1.1-4-1.1
				l-10.2,4.6c0,0,3.7-4,5.2-4.9c1.4-0.8,5.1-2.6,7.9-3.4c5.3-1.6,14.2-2.2,14.2-2.2s-12.5-4.5-24.1,3.2c-1.7,1.1-6.5,5.4-7.7,8.2
				c-1.5,3.5-2.4,7-3.9,10.4c-4.6,9.8-13,14.8-19.7,22.8c-3.6,4.4-6.4,13.7-6.4,13.7s-3.4-9,1.1-17.1c8.5-15.5,12.8-15.7,14.5-23.1
				c0.8-3.8-5.1-3.2-8-4.8c-2.3-1.3-3-5-3.9-6.2c-1.3-2.1-8.9,8.6-8.9,6.4c1.5-3.5,2.9-6.4,6.2-8.9c2.3-1.7,2.7-1.9,3.7-4.7
				c0.2-0.5,2.3-5.3,2.9-4.8c0.6,0.3-1.5,8-1.2,8.9c0.8,2.4,3.6,2.7,6.1,2.5c5.6-0.6,8.2-3.7,10.5-8.7c2.9-6.6,5.8-13.5,11.9-17.9
				c4-2.9,10.9-6.9,16-5.3c1,0.3,4,2.4,4.8,1c0.3-0.6-0.9-3.1-1.6-3.7c-5.4-4-9.5-4.4-10.8-4.5c-4.4-0.5-9.2-0.8-12.4-0.2
				c-5.6,0.9-15.9,8.2-19,10.5c-2.7,2.1-6.5,9.8-7.2,9.2c-0.6-0.6,4.1-9,2.1-10.9c-3.2-3-8.4,3.7-9.7,5.7c-0.2,0.3-5.5,7.4-6.6,8.8
				c-3.4,3.3-6.9,10,0.2,10.6c3.5,0.3,2.5-0.7,3.6-3.2c0.4-0.8,3.5-5.3,4.2-4.7c-1.2,2.3-1.4,3.8-2.3,9.2c-0.5,3.2-4.7,7.7-6.9,11.2
				c-1.2-3.3-2.5,4.7-2.6,5.3c-1.1-1.6-1-4.7-0.9-6.5c0-1.3,1.2-4.6,0.5-5.5c-2.1-2.7-8.1,6.6-9,12.4c-0.1,1-1.9,3.2-2.9,4.9
				c-2.4,4.6,2.6,1.1,4.9,2.3c-7.2,4.8-14.4,7.6-19,15.3c-2.5,4.1-4.3,7.6,0.8,9.4c1.9,0.7,3.9,1,5.9,1c3.6,0,3.6-0.7,4.9-3.7
				c3.6-7.6,14.3-15.2,21-6.4c2.8,3.5,3.3,9.7,3.2,13.2c-0.2,4.7-1.8,14.2-4,18.3c-2.5,4.8-9.6,10.5-15.7,14.7
				c-3.9,2.6,0.9,6.3,4.3,5.6c6.1-1.3,20.8-12.6,24.9-18c3.4-4.5,6.8-12.5,8.2-18.3c0.5-1.8,2.4-6.9,4-11.9
				c3.5-6.4,10-13.2,22.5-15.9c3.6-0.6,8.6-1,10.9,0.7c6.7,5.2,5.5,19.7,2.9,22.4c-5.1,5.4-6.5,4-12.5,6.5c-6.1,2.5-18,5.7-22.7,9.7
				c-5.4,4.7-11.2,19.2-11.2,19.2s9.4-4.1,16.6-4.2c6.9-0.1,13.2,3.9,20.2,2.6c11.7-2.1,27.4-8.4,35-17.9c4.1-5.2,5.8-10.2,6.9-16.7
				c0.5-3.4,1.9-13.2-1.2-16.6C275.2,271,275,268.8,275,268.8"/>
			<path class="st24" d="M302,230.5c-2.9-1.6-5.6-3.2-8.7-4.4c-1.2-0.5-3.7-1.8-4.8-1.6c-1,0.2,5,4.4-0.7,3.3
				c-1.8-0.3-4.4-1.1-6.3-0.7c-3.2,0.9-1.3,1.4-0.2,2.6c0.8,0.9,2.1,1.9,3.1,2.5c2.1,1,4.1,1.8,6.3,2.4c3.7,0.9,8.4,1.7,11.9-0.1
				C305.4,233.4,304.8,232.1,302,230.5 M283,229.6L283,229.6L283,229.6"/>
			<path class="st24" d="M179.5,251.5c0.7,0.2,3.8-5,4.3-5.6c0.6-0.8,5-5.4,1.6-4.7C184,241.4,177.3,250.7,179.5,251.5"/>
			<path class="st24" d="M330.4,263.5L330.4,263.5L330.4,263.5 M362.1,282.1c-11-13.1-18.4-17.2-25.6-19.5c-6.1-1.9-23-0.7-23-0.7
				s7,0.8,13.1,1.4c8,0.8,15.5,3.9,21.7,8.6c6.3,4.7,12.3,10.9,14.6,14.3c2.1,3,4.3,9.7,4.3,9.7S367.8,288.9,362.1,282.1"/>
			<path class="st24" d="M256.8,242.9c0,0-2.5-2.1-5.2-2.4c-5.3-0.9-10.9,0.2-15.9,2.3c-3.4,1.4-5,3.2-7.5,5.5
				c-0.5,0.5-3.2,3.1-3.2,3.1s12.8-6,15.9-7.1C247.8,241.8,256.8,242.9,256.8,242.9"/>
			<path class="st24" d="M189.3,249.2c-0.9,0.9-3.6,6.5-2.6,7c1,0.5,6.2-7.9,6.3-8.7C193.4,244,190.2,248.2,189.3,249.2"/>
			<path class="st24" d="M154.7,285c2.6-4.4,4.9-9,8.2-12.9c1.6-2.1,3.8-3.8,5.8-5.4c1.6-1.3,4.7-2.5,5.8-4.4
				c-6.6,1.9-14.3,7.1-18.5,12.5c-1.6,2.2-4.5,6.2-4.6,9C151.3,285.7,153.3,287.6,154.7,285"/>
			<path class="st24" d="M207.7,223.3c-1.4-0.9-7.2,8.4-7.4,9.2c-0.4,1.4-1.5,7.2,0.5,7.7c1.9,0.5,3-7.6,3.6-9
				C204.8,230.4,208.5,223.8,207.7,223.3"/>
			<path class="st24" d="M189.1,236.1c0.2,1.8,1.2,0.5,1.5,0c0.4-0.6,0.5-3.5,0.7-4.1c0.2-0.6,2.4-4.6,1.2-4.7
				C189.8,226.8,188.9,235.1,189.1,236.1"/>
			<path class="st24" d="M198.5,296.3L198.5,296.3L198.5,296.3z"/>
			<path class="st24" d="M197.6,290.9c-2.9,8.8-8.6,19.2-8.6,19.2s8.7-6,10.4-9.7c2.9-6.9,4.3-21,4.3-21S199.6,284.3,197.6,290.9"/>
			<path class="st24" d="M302.2,357.7c-3.2,6.5-6.4,13.1-7.2,20.3c-0.5,4.5-0.8,14.2,2.8,17.7c0.4-1.6-0.4-3.4-0.5-5
				c-0.3-3.9,0.1-8.1,0.5-12c0.4-3.8,1.1-7.4,2.2-11.1c1-3.9,3.6-8,3.7-12C303,356.2,302.5,356.9,302.2,357.7"/>
			<path class="st24" d="M219.5,215.7c3.8-0.8,5.5-5.7,8.8-7.4c3-1.5,7.1-1.6,10.2-0.6c2.1,0.7,3.8,2.1,5.4,3.5
				c0.4,0.5,1.4,2.3,2.3,1.9c3-1.4-3.7-5.2-4.4-5.5c-4-1.9-7.3-2.5-11.5-1.8c-3.2,0.5-5.8,1.9-8.1,4.4
				C222,210.4,216.9,216.2,219.5,215.7"/>
			<path class="st24" d="M178.6,234.2c1.6,0.6,10.8-11.9,9.5-13.9C188.4,220.7,175,232.8,178.6,234.2"/>
			<path class="st24" d="M168.8,254.6c0.4,1.8,3.1-3.9,4.7-6.2c1.8-2.6,2.9-5.4,2.9-5.4s-2.4,0.1-5.4,6
				C169.3,252.1,168.5,253.7,168.8,254.6"/>
			<path class="st24" d="M346,311.4c-1.7-14-10.2-18.7-10.2-18.7s5.7,9.5,6.7,16.5c1.1,7.7,0.7,13.9-1.7,21.2
				C345.5,327.5,346.4,318.1,346,311.4 M344.5,321.6c0.1,0,0.1,0.1,0,0.1C344.5,321.7,344.5,321.7,344.5,321.6"/>
			<path class="st24" d="M256.5,373.3c-3.3,2.6-6.1,4.2-10.2,5.4c-4.5,1.3,0.1,1.4,2.6,0.9c3.4-0.7,5.7-2.2,8.3-4.4
				c2.4-1.9,7.7-7.1,7.2-10.5C261.9,367.7,259.5,370.9,256.5,373.3"/>
			<path class="st4" d="M222.9,274.7c0.3,0.7,0.5,1.1,0.8,1c0.6-0.2-0.8-3.2,1.1-4.1c0.7-0.3,2.6-0.9,3.3-1.1c0.8-0.2,2.1-0.9,3-0.9
				c1.1,0,1.3,0.6,1.9,1.6c0.3,0.6,0.4,1.1,0.7,0.9c0.8-0.3-0.7-2.7,1.3-3.3c1.1-0.3,2.8-0.1,4,0.1c1.1,0.1,2.4,0,3,1
				c0.6,1,1,2.5,1.3,3.5c0.4,1.4,0.7,2.7,0.9,4.2c0.2,1.6-1.1,2.2-2.3,3.2c-1.4,1.3-3.7,2.6-5.7,2.3c-1.1-0.1-1.2-4-2.3-3.8
				c-1.1,0.2,0.2,3.7-0.5,4.7c-1.6,1.1-5.8,2.7-6.9,2.3c-0.8-0.6-1.5-3.5-2.7-3.1c-0.5,0.2,0.1,2.7-0.4,3.4c-0.7,0.9-6.2,3-6.9,2.4
				c-0.5-0.3-0.7-3.7-1.7-3.4s0.1,3.8-0.1,4.1c-0.7,0.6-5.3,3.2-5.2,2.3c0.2-3.3,1.7-7.6,2.8-9.7c0.8-1.8,2.5-4.1,4-5.4
				c0.8-0.7,2.4-1.7,3.5-2.2C221.2,273.8,222.2,273.1,222.9,274.7"/>
			<path class="st4" d="M241.8,283.1c1.2,2.4,1.3,3.9-0.1,6.5c-0.3,0.6-2.6,1.9-4,2.4c-0.9,0.2-0.8-1.5-1.5-1.3
				c-0.7,0.2,0.4,1.7-0.3,1.9c-1.4,0.5-8.5,3.3-9,2.6c-0.2-0.3-0.6-1.4-0.9-1.3c-0.6,0.1,0.4,1.8-0.7,2.2c-0.8,0.2-4.8,2.1-7.1,2.6
				c-0.8,0.2-1.2-1.7-1.7-1.5c-0.7,0.3,0.5,2.2-0.3,2.4c-1.3,0.6-8,3.9-9.4,3.5c-0.6-0.1,2.1-8.9,2.5-9.3c3-1.9,3.9-2.4,4.7-2.7
				c0.7-0.2,2.1-1,2.7-0.5c0.5,0.5,0.4,1.9,0.9,1.9c0.8,0,0.7-2.4,1.6-2.7c1.3-0.5,3.7-1.5,5.1-1.5c1.6,0,1.4,1.4,2.1,1.4
				c0.4,0,0.2-1.1,0.7-1.5c0.1-0.1,0.8-0.6,1.5-0.8c0.9-0.5,2.4-0.9,3.7-1.5c0.5-0.2,2.3-0.7,2.8-0.5c0.3,0.1,0.5,1.4,0.8,1.3
				c0.4-0.1-0.1-1.5,0.3-1.7C236.8,284.9,241.5,282.6,241.8,283.1"/>
			<path class="st23" d="M266.6,302.7c4.4-5.8,5.5-11.6,5.7-19.1c1.6,1.7,1.4,10.6,1.4,10.6s1.7-4.4,2.1-6c0.6-2.9,0.3-5.2,0.3-5.2
				L275,269c0,0,7.2,9.4,6.8,16.8c-0.3,5.5-1.2,12-1.2,12s-3.5-7.2-3.5-6.2c0,0.8,0,2.3-0.5,5.2c-1.1,10.1-4.9,14.1-4.9,14.1
				s0.6-6.1,0.9-7.1c-4.5,7.7-13.6,11.7-21.5,15.1c-4.3,1.8-8.7,3.5-13.3,4.7c-4.5,1-9-0.2-13.4-1.3c-3.8-0.9-8.6-1.5-11.5-1.1
				c-1.3,0.1-4.9,1.5-4.9,1.5s2.6-1.7,5.1-2.5c3.3-1,9.8-1.1,13.8-0.5c4.5,0.7,12.3,3,20.5-6.1c2.3-2.5,5.1-3.2,5.1-3.2
				s-2.4,3.2-2.7,4.1c-0.1,0.3-0.1,1.1-0.1,1.1s3.4-1,4.2-1.5c2.2-1.1,4.2-2.5,6.1-4.1c0.8-0.7,1.5-1.4,2.3-2.2
				C262.7,307.1,265.6,304,266.6,302.7"/>
			<path class="st23" d="M205.8,308.6c1.5-3,9.3-6.3,9.3-6.3s-7.7,2.4-9.4,4.5c-3.9,4.6-3.5,5.7-6.8,9.4c-3.3,3.7-5,5-8.2,7.6
				c-3.2,2.5-12.8,10.6-19.1,11.4c-6.4,0.8-8-1.3-11.8-3.2c-3.9-1.9-9-2.6-10.4-3c-1.1-0.3-2.2-0.8-2.2,0.8c0,0.8,3.9-0.7,12.7,4.5
				c5.7,3.3,7,4,14.2,2.5c7.3-1.5,13.2-8.5,17.8-12c1.7-1.3,5.6-4.7,8.2-7.7C203.3,313.7,204.8,310.6,205.8,308.6"/>
			<path class="st19" d="M228.6,200.8c-1.2,0.1-3.7,0.8-4.4,0.2c-1.4-1.5,0.9-3.1,1.5-3.4c0.5-0.2,5.4-1.7,6.2-1.9
				c0.9-0.2,2.8-0.3,3.1-0.1c0.6,0.5-0.5,1.9-2.8,4.4C231.6,200.3,230.1,200.7,228.6,200.8"/>
			<path class="st3" d="M353.5,289.6c1.8,6.6,10.9,21.1,13.4,27.5c3,7.3,8.5,18.8,11.7,25c1.8,3.5,3.1-5.2,1.2-8.7
				c-2.9-5.5-7.6-17.2-10.5-22.8c-3.4-6.5-6.2-10.8-8-17.5C360.2,289.2,353.5,289.6,353.5,289.6"/>
			<path class="st3" d="M372.6,375.5c20.2-38,34.9-82.8,43.2-131.8h-11.6c-8.1,49.6-23.2,94.5-44.2,131.8H372.6z"/>
			<path class="st3" d="M466.1,386.8c-8.3-4.4-14-8.9-15.7-12.1c20.2-7.4,34.7-32.3,34.8-32.5l2.9-5.6l-5.6,2.9c0,0-3.1,1.6-4.2,2.2
				c-3.6,1.8-9.3,2.9-16.6,2.9c-5.8,0-11.4-0.6-14.5-1c-24.5-4.1-40.1-4.4-40.2-4.4c-6.8,0-11.5,0.7-14.4,2.2
				c-1,0.5-1.9,1.1-2.6,1.9l-0.1,0.1c-0.2,0.2-0.6,1-0.7,1.8c0,0.3-0.1,0.7,0.9,6.5c-45.7-2.2-90.3-3.5-136-4.1v-0.1l-2.2,0.1h-0.1
				l-2.3-0.1v0.1c-45.7,0.6-90.2,1.8-136,4.1l0.7-4.1c0.1-0.8,0.2-1.8,0.2-2.4c-0.1-0.8-0.5-1.6-0.7-1.8l-0.1-0.1
				c-0.6-0.8-1.4-1.4-2.5-1.9c-3-1.4-7.6-2.2-14.4-2.2c-0.1,0-15.8,0.3-40.2,4.4c-3.1,0.5-8.3,1-14.2,1c-0.1,0-0.2,0-0.2,0
				c-5.6,0-10.9-0.9-15.4-2.7c-1.1-0.5-5.5-2.3-5.5-2.3l-5.2-2.2l2.7,5c0.1,0.2,14.7,25.1,34.8,32.5c-1.6,3.2-7.4,7.8-15.7,12.1
				c-7.6,4.1-15.3,7.1-16.9,7.8l-3.6,1.4l2.1,2.9c3.6,4.7,13,5.4,21.7,5.5c8.3,0,16.1-0.9,16.1-0.9c1.2-0.2,2.9-0.3,4.4-0.5
				c0.1,0,0.2,0,0.3,0c-0.2,0.2-0.3,0.5-0.4,0.7c-0.6,1-1.2,1.8-1.5,3.2c-0.3,1.5,0.1,2.5,0.5,3.2c1.1,1.7,3.5,2.4,5.6,2.7
				c3.8,0.6,8.4,0.7,10.9,0.7c1.9,0,3.8-0.1,5.2-0.1c24.4-1.9,48.3-3.4,72.1-4.7l3.3,5.7l14.5,15h160l12.2-16.4l2.6-4.5
				c24.8,1.3,49.7,2.9,75.2,4.8c1.3,0.1,3.2,0.1,5.2,0.1c3.2,0,5.9-0.2,9.5-0.8c3.5-0.6,5.6-1.6,6.6-3.1c0.6-0.9,0.7-1.9,0.5-3
				c-0.3-1.4-0.9-2.4-1.6-3.5c-0.1-0.2-0.2-0.5-0.4-0.6h0.2c1.7,0.3,3.7,0.7,5,0.8c2.2,0.2,8,0.9,16.1,0.9
				c8.7-0.1,18.2-0.8,21.7-5.5l2.1-2.7l-2.6-0.9C483.9,395.1,474.6,391.4,466.1,386.8"/>
			<path class="st17" d="M68.5,381.8v-0.7c-0.2-8.1-2.1-15.3-3.9-20.6c-1.6-4.5-3.2-7.4-3.6-8.1v-0.1c-0.1-0.1-0.3-0.5-0.4-0.9
				c0-1,1-2.1,4-2.7c3-0.8,8.2-1.4,17.3-1.4c5.2,0,11.8,0.2,19.9,0.7c0.6,0,1.5,0.1,2.5,0.1c1.4,0,3.2-0.1,4.4-0.6
				c1.2-0.5,1.9-1,2.3-2.1v-0.1c0,0-0.1-0.1-0.1-0.2c-0.5-0.7-3-2.7-14-2.7c0,0-15.4,0.3-39.6,4.4c-3.5,0.6-9,1.1-14.8,1.1
				c-6.7,0-13.5-0.7-18-3c1.7,2.5,4.3,6.2,7.7,10c6.2,7.1,15,14.8,24.8,17.6l0.5,0.1v0.5v0.1c-0.1,6-9.1,11.9-17.9,16.7
				c-7.3,3.9-14.5,6.9-16.8,7.8c2.7,2.6,10.8,3.5,18.4,3.4c8.1,0,15.6-0.9,15.6-0.9c2.7-0.5,5.4-0.9,8-1.3
				C66.5,394.1,68.5,387.8,68.5,381.8"/>
			<path class="st17" d="M464.2,389.8c-8.8-4.8-17.8-10.8-17.9-16.7c0-0.1,0-0.1,0-0.1v-0.5l0.5-0.1c9.8-2.9,18.6-10.5,24.8-17.6
				c3.4-3.9,6.1-7.4,7.7-10c-4.5,2.3-11.5,3-18,3c-5.7,0-11.2-0.6-14.8-1.1c-24.2-4-39.6-4.4-39.6-4.4c-11.1,0-13.6,2.1-14,2.7
				c-0.1,0.1-0.1,0.2-0.1,0.2l0,0v0.1c0.2,1,1,1.6,2.3,2.1s2.9,0.6,4.4,0.6c0.9,0,1.8,0,2.5-0.1c8.1-0.5,14.7-0.7,19.9-0.7
				c9.2,0,14.4,0.6,17.3,1.4c3,0.7,4,1.8,4,2.7c0,0.5-0.2,0.8-0.4,0.9c0,0,0,0-0.1,0.1c-0.3,0.7-1.9,3.5-3.5,8.1
				c-1.8,5.2-3.7,12.4-3.9,20.6c0,0.2,0,0.5,0,0.7c0,6.1,1.9,12.4,4,17.2c2.7,0.3,5.3,0.8,8,1.3c0,0,7.5,0.9,15.6,0.9
				c7.6,0,15.7-0.9,18.4-3.4C478.7,396.5,471.5,393.6,464.2,389.8"/>
			<path class="st17" d="M435.4,398.7c-1.9-4.7-3.7-10.8-3.7-16.7c0-0.2,0-0.5,0-0.7c0.2-6.5,1.4-12.5,2.9-17.3
				c1.1-3.8,2.5-6.9,3.4-8.8c-0.1,0-0.1,0-0.2,0.1c-3.5,1.6-8.7,1.8-13,1.9c-1.5,0-3,0-4.1-0.1c-9.4-0.6-18.6-1-27.6-1.5h-0.1
				c-0.5,0-1,0-1.5-0.1c-52.9-2.6-99.4-3.8-139.5-4.2c-40.2,0.5-86.7,1.6-139.5,4.2c-0.5,0-1,0-1.5,0.1h-0.1
				c-9,0.5-18.3,0.9-27.6,1.5c-1.2,0.1-2.6,0.1-4.2,0.1c-4.3,0-9.6-0.3-13-1.9c0,0-0.1,0-0.2-0.1c0.9,2.1,2.2,5,3.4,8.8
				c1.4,4.8,2.7,10.6,2.9,17.3c0,0.2,0,0.5,0,0.7c0,6-1.8,11.9-3.7,16.7c-0.2,0.5-0.4,0.9-0.5,1.4c-1.7,4-3.7,6.9-3.8,7.6
				c-0.1,0.7,1.9,1.5,4.7,1.9c3,0.5,6.9,0.7,10,0.7c1.9,0,3.7-0.1,4.8-0.1c65.2-5,120.8-7.1,168.1-7.7l0,0c0.1,0,0.1,0,0.2,0
				c0.1,0,0.1,0,0.2,0l0,0c47.3,0.6,102.8,2.6,168.1,7.7c1.1,0.1,2.9,0.1,4.8,0.1c3.2,0,7.1-0.1,10-0.7c2.9-0.5,4.7-1.3,4.7-1.9
				c0-0.9-2.1-3.5-3.8-7.6C435.7,399.6,435.5,399.2,435.4,398.7"/>
			<polygon class="st4" points="207,406.4 210.9,406.4 210.9,413.4 213.6,413.4 213.6,406.4 217.4,406.4 217.4,423.7 213.6,423.7 
				213.6,416.1 210.9,416.1 210.9,423.7 207,423.7 			"/>
			<path class="st4" d="M222.5,406.4h4.3l3.2,17.3h-3.5l-0.6-3.7h-2.5l-0.6,3.7h-3.5L222.5,406.4z M225.7,417.7l-0.9-6.8l-0.9,6.8
				H225.7z"/>
			<polygon class="st4" points="231.9,406.4 234.6,406.4 238.2,414.7 238.2,406.4 241.4,406.4 241.4,423.7 238.8,423.7 235.2,414.7 
				235.2,423.7 231.9,423.7 			"/>
			<path class="st4" d="M244,406.4h4.4c1.5,0,2.7,0.2,3.5,0.6c0.8,0.3,1.4,0.9,1.7,1.7c0.3,0.8,0.5,1.8,0.5,3.2v6.3
				c0,1.4-0.2,2.4-0.5,3.2c-0.3,0.8-0.9,1.4-1.7,1.8c-0.8,0.3-1.9,0.6-3.5,0.6H244V406.4z M248.5,421c0.5,0,0.9-0.1,1.2-0.2
				c0.3-0.1,0.4-0.3,0.5-0.7c0.1-0.3,0.1-0.8,0.1-1.4v-7.6c0-0.6,0-1-0.1-1.3c-0.1-0.3-0.2-0.5-0.5-0.7c-0.3-0.1-0.7-0.2-1.2-0.2
				h-0.6v12L248.5,421L248.5,421z"/>
			<path class="st4" d="M256.7,406.4h4.5c1.1,0,2.1,0.1,2.9,0.3s1.4,0.7,1.9,1.4c0.5,0.7,0.7,1.6,0.7,2.9c0,1-0.2,1.8-0.6,2.4
				c-0.4,0.6-1,0.9-1.8,1.1c1,0.1,1.7,0.6,2.3,1.3c0.5,0.7,0.8,1.7,0.8,2.9c0,3.4-1.7,5.2-5.2,5.2h-5.3v-17.4H256.7z M261.2,413.3
				c0.8,0,1.3-0.2,1.6-0.6c0.3-0.3,0.4-0.9,0.4-1.7c0-0.7-0.2-1.1-0.5-1.6c-0.4-0.3-0.9-0.6-1.6-0.6h-0.6v4.4h0.7V413.3z M261.3,421
				c0.8,0,1.3-0.2,1.7-0.6c0.3-0.5,0.5-1,0.5-1.9c0-1-0.2-1.7-0.5-2.1s-0.9-0.6-1.7-0.6h-0.8v5.2H261.3z"/>
			<path class="st4" d="M271.6,406.4h4.3l3.2,17.3h-3.4l-0.6-3.7h-2.6l-0.6,3.7h-3.6L271.6,406.4z M274.8,417.7l-0.9-6.8l-0.9,6.8
				H274.8z"/>
			<polygon class="st4" points="281.1,406.4 284.9,406.4 284.9,421.2 288.9,421.2 288.9,423.7 281.1,423.7 			"/>
			<polygon class="st4" points="290.6,406.4 294.5,406.4 294.5,421.2 298.4,421.2 298.4,423.7 290.6,423.7 			"/>
			<path class="st4" d="M85.6,397c-1.5-1.5-2.5-3.9-2.8-7.2c2.3-0.5,3.4-0.8,5.6-1.3c0.2,1.9,0.5,3.3,1,4.1c0.5,0.8,1.1,1.1,2.1,1.1
				c1.1-0.1,1.6-0.9,1.5-2.4c-0.1-1.1-0.4-2.2-1-3c-0.6-0.8-1.5-1.7-2.7-2.6c-1.1-0.8-1.6-1.3-2.8-2.2c-1.3-1-2.5-2.2-3.3-3.3
				c-0.8-1.3-1.2-2.6-1.3-4.4c-0.2-2.6,0.4-4.6,1.8-6.1c1.4-1.5,3.5-2.3,6.2-2.5c2.9-0.2,4.9,0.6,6.1,2.2c1.1,1.6,1.8,3.7,2.1,6.1
				c-2.3,0.5-3.5,0.7-5.7,1.1c-0.2-1.6-0.4-2.7-0.6-3.4c-0.3-0.7-0.8-1-1.6-0.9c-0.6,0-1,0.3-1.3,0.8c-0.3,0.5-0.4,1-0.3,1.7
				c0.1,1,0.4,1.9,0.8,2.5c0.5,0.7,1.3,1.5,2.4,2.3c1,0.8,1.6,1.3,2.7,2.1c1.5,1.1,2.9,2.5,3.8,3.9c0.9,1.4,1.4,3.1,1.5,5
				c0.1,1.5-0.2,2.7-0.7,4c-0.6,1.3-1.4,2.2-2.6,3s-2.5,1.1-4.1,1.3C89.3,399.1,87.1,398.4,85.6,397"/>
			<path class="st4" d="M104.6,395.3c-1.3-1.7-2.2-4.4-2.4-7.8c-0.3-4.1-0.4-6.2-0.6-10.3c-0.2-3.4,0.3-6.2,1.6-8.1
				c1.2-1.9,3.6-3,6.9-3.2c3.2-0.2,5.5,0.5,7,1.9c1.4,1.5,2.3,3.7,2.5,6.5c0,0.8,0.1,1.1,0.1,1.9c-2.7,0.1-3.9,0.2-6.6,0.3
				c-0.1-1-0.1-1.5-0.1-2.5c-0.1-1.3-0.3-2.2-0.6-2.7c-0.3-0.6-0.9-0.9-1.8-0.8c-1,0-1.6,0.5-1.8,1.1c-0.2,0.7-0.3,1.6-0.3,2.9
				c0.3,5.7,0.5,8.6,0.8,14.3c0.1,1.3,0.3,2.2,0.7,2.9c0.4,0.7,1,1,2.1,0.9c1.7-0.1,2.6-1.5,2.4-4.1c-0.1-1.5-0.1-2.2-0.2-3.7
				c-1.1,0.1-1.6,0.1-2.8,0.1c-0.1-1.6-0.1-2.4-0.2-4c3.5-0.2,5.2-0.3,8.7-0.5c0.3,6.4,0.5,9.6,0.9,15.9c-1.7,0.1-2.7,0.1-4.4,0.2
				c-0.2-1-0.3-1.5-0.5-2.5c-0.8,2.1-2.4,3.2-4.7,3.3C108.2,397.8,106,397,104.6,395.3"/>
			<path class="st4" d="M132.9,365.2c3.4-0.1,5-0.2,8.4-0.3c3.4-0.1,5.8,0.3,7.7,1.5c1.7,1.1,2.7,3.2,2.9,6.3
				c0.1,2.1-0.1,3.7-0.6,4.9c-0.5,1.3-1.4,2.2-2.8,3c1.9,5.8,2.9,8.8,4.8,14.8c-2.8,0.1-4.1,0.2-6.9,0.3c-1.5-5.5-2.4-8.2-3.9-13.6
				c-0.7,0-1.1,0-1.9,0.1c0.2,5.5,0.4,8.2,0.6,13.9c-2.7,0.1-4,0.2-6.7,0.3C133.9,385.7,133.4,375.4,132.9,365.2 M142.1,377.8
				c1.3-0.1,2.3-0.5,2.8-1.3c0.5-0.8,0.7-1.8,0.6-3.3c-0.1-1.4-0.3-2.4-0.9-3.1c-0.5-0.7-1.4-1-2.7-0.9c-0.9,0-1.3,0.1-2.2,0.1
				c0.2,3.4,0.2,5.2,0.4,8.5C141,377.9,141.4,377.9,142.1,377.8"/>
			<path class="st4" d="M159.9,394.1c-1.3-0.7-2.4-1.7-2.9-3.2c-0.6-1.5-0.9-3.3-1-5.5c-0.3-8.5-0.5-12.7-0.8-21.3
				c2.7-0.1,4-0.1,6.7-0.2c0.3,8.9,0.5,13.4,0.8,22.3c0,1.3,0.2,2.2,0.6,3c0.3,0.7,1,1,1.9,1s1.5-0.5,1.8-1.1c0.3-0.8,0.4-1.7,0.3-3
				c-0.3-8.9-0.5-13.4-0.8-22.3c2.7-0.1,4-0.1,6.7-0.2c0.3,8.5,0.4,12.7,0.7,21.3c0.1,2.3-0.1,4.1-0.6,5.6c-0.5,1.5-1.4,2.6-2.7,3.4
				c-1.2,0.8-3.1,1.3-5.3,1.3C163,395.2,161.2,394.8,159.9,394.1"/>
			<path class="st4" d="M180,392.2c-1.4-1.5-2.3-4-2.5-7.3c2.3-0.5,3.4-0.6,5.7-1c0.1,1.9,0.3,3.3,0.8,4.2c0.4,0.8,1.1,1.3,1.9,1.3
				c1.1,0,1.6-0.8,1.6-2.3c0-1.1-0.3-2.2-0.9-3.1c-0.5-0.8-1.4-1.7-2.6-2.7c-1-0.9-1.6-1.4-2.7-2.3c-1.3-1-2.4-2.3-3.1-3.4
				c-0.7-1.3-1.1-2.7-1.2-4.5c-0.1-2.6,0.6-4.6,2.1-6.1c1.4-1.5,3.6-2.2,6.3-2.3c2.9-0.1,4.9,0.7,5.9,2.4c1.1,1.7,1.7,3.8,1.8,6.2
				c-2.4,0.3-3.5,0.6-5.7,0.9c-0.1-1.6-0.3-2.7-0.5-3.4c-0.3-0.7-0.8-1-1.6-1c-0.6,0-1,0.2-1.3,0.8c-0.3,0.5-0.4,1-0.4,1.7
				c0,1,0.3,1.9,0.7,2.6c0.5,0.7,1.2,1.5,2.3,2.4c1,0.9,1.5,1.3,2.6,2.2c1.5,1.3,2.8,2.6,3.6,4s1.3,3.1,1.3,5.2c0,1.5-0.3,2.7-0.9,4
				c-0.6,1.1-1.5,2.2-2.7,2.9c-1.1,0.7-2.6,1.1-4.1,1.1C183.5,394.5,181.4,393.8,180,392.2"/>
			<path class="st4" d="M195.6,362.9c2.3,0,3.5-0.1,5.7-0.1c0.9,7.2,1.3,10.8,2.2,18c0.8-7.2,1.1-10.8,1.9-18c1.8,0,2.7,0,4.5-0.1
				c1.1,7.1,1.6,10.6,2.7,17.7c0.6-7.1,0.9-10.8,1.5-17.9c2.3,0,3.4,0,5.6-0.1c-1.1,10.3-2.2,20.6-3.2,30.9c-2.4,0-3.5,0-5.8,0.1
				c-1.1-7.4-1.7-11.1-2.9-18.5c-0.8,7.4-1.2,11.2-2.1,18.7c-2.4,0-3.5,0.1-5.8,0.1C198.5,383.4,197.1,373.1,195.6,362.9"/>
			<path class="st4" d="M223.2,362.4c2.7,0,4.1,0,6.8-0.1c0.1,10.3,0.2,20.6,0.3,30.8c-2.7,0-4,0-6.7,0.1
				C223.4,382.9,223.3,372.6,223.2,362.4"/>
			<path class="st4" d="M234.5,362.3c2.7,0,4.1,0,6.8,0c0,10.5,0.1,15.8,0.1,26.2c2.8,0,4.2,0,7,0c0,1.8,0,2.7,0,4.6
				c-5.4,0-8.2,0-13.6,0.1C234.7,382.8,234.6,372.5,234.5,362.3"/>
			<path class="st4" d="M257.6,362.2c2.3,0,3.5,0,5.7,0c0.7,7.2,1,10.8,1.7,18c0.9-7.2,1.4-10.8,2.4-18c1.8,0,2.7,0,4.5,0
				c0.9,7.1,1.3,10.6,2.3,17.9c0.8-7.1,1.2-10.6,2.1-17.9c2.3,0,3.4,0,5.6,0.1c-1.3,10.3-2.7,20.5-4,30.8c-2.4,0-3.5,0-5.8,0
				c-0.9-7.4-1.4-11.2-2.5-18.7c-1,7.4-1.5,11.1-2.6,18.5c-2.4,0-3.5,0-5.8,0C259.9,382.8,258.8,372.5,257.6,362.2"/>
			<path class="st4" d="M286.3,391.2c-1.3-1.7-2.1-4.2-1.9-7.7c0.1-4.6,0.1-6.9,0.2-11.4c0-3.3,0.8-5.8,2.3-7.6s3.8-2.5,7.1-2.4
				c3.3,0.1,5.6,0.9,7.1,2.6c1.3,1.7,2.1,4.2,1.9,7.6c-0.1,4.6-0.1,6.9-0.2,11.4c-0.1,3.3-0.8,5.8-2.3,7.6s-3.8,2.5-7.1,2.4
				C290,393.8,287.7,392.9,286.3,391.2 M295.2,388.1c0.3-0.7,0.5-1.5,0.5-2.6c0.1-6,0.2-8.9,0.3-14.9c0-1.1-0.1-2.1-0.4-2.6
				c-0.3-0.7-0.9-0.9-1.8-1c-0.9,0-1.5,0.3-1.8,0.9c-0.3,0.7-0.5,1.5-0.5,2.6c-0.1,6-0.1,8.9-0.2,14.9c0,1.1,0.1,1.9,0.4,2.6
				c0.3,0.7,0.8,1,1.8,1C294.3,389.1,294.9,388.8,295.2,388.1"/>
			<path class="st4" d="M307.1,362.9c2.7,0.1,4.1,0.1,6.8,0.1c-0.3,10.5-0.4,15.7-0.7,26.2c2.8,0.1,4.2,0.1,7,0.2
				c-0.1,1.8-0.1,2.7-0.1,4.6c-5.4-0.1-8.2-0.2-13.6-0.3C306.7,383.4,306.9,373.1,307.1,362.9"/>
			<path class="st4" d="M323.9,363.3c2.7,0.1,4,0.1,6.8,0.2c-0.2,5-0.2,7.4-0.4,12.5c1.8,0.1,2.8,0.1,4.7,0.1
				c0.2-5,0.3-7.4,0.4-12.5c2.7,0.1,4.1,0.1,6.8,0.2c-0.4,10.3-0.8,20.5-1.1,30.8c-2.7-0.1-4-0.1-6.7-0.2c0.2-5.4,0.3-8.1,0.5-13.5
				c-1.8-0.1-2.8-0.1-4.7-0.1c-0.2,5.4-0.3,8.1-0.4,13.5c-2.7-0.1-4-0.1-6.7-0.2C323.3,383.8,323.6,373.5,323.9,363.3"/>
			<path class="st4" d="M349.1,394.4c-1.3-0.8-2.2-1.9-2.7-3.4c-0.5-1.5-0.7-3.3-0.6-5.6c0.3-8.5,0.5-12.7,0.8-21.3
				c2.7,0.1,4,0.1,6.7,0.2c-0.4,8.9-0.5,13.4-0.9,22.3c-0.1,1.3,0.1,2.3,0.3,3c0.3,0.8,0.9,1.1,1.8,1.1c0.9,0,1.5-0.3,1.9-1
				c0.3-0.7,0.5-1.7,0.6-3c0.4-8.9,0.6-13.4,1-22.3c2.7,0.1,4,0.2,6.7,0.3c-0.4,8.5-0.6,12.7-1,21.3c-0.1,2.3-0.5,4.1-1.1,5.5
				c-0.6,1.5-1.6,2.5-3,3.2c-1.3,0.7-3.2,1-5.4,0.9C352,395.6,350.3,395.2,349.1,394.4"/>
			<path class="st4" d="M369.2,394.1c-1.3-1.6-1.9-4.1-1.8-7.6c2.3-0.2,3.5-0.3,5.7-0.6c-0.1,1.9,0.1,3.3,0.5,4.2
				c0.4,0.9,1,1.4,1.8,1.4c1.1,0.1,1.7-0.7,1.7-2.2c0.1-1.1-0.1-2.2-0.6-3.1c-0.5-0.9-1.3-1.8-2.4-2.9s-1.5-1.5-2.5-2.4
				c-1.2-1.1-2.2-2.4-2.9-3.7c-0.6-1.3-0.9-2.7-0.8-4.5c0.1-2.6,1-4.6,2.6-5.8c1.5-1.4,3.7-1.9,6.4-1.7c2.9,0.1,4.8,1.1,5.7,2.9
				c0.9,1.7,1.4,3.9,1.3,6.3c-2.4,0.1-3.5,0.2-5.8,0.5c0-1.6,0-2.7-0.2-3.4c-0.2-0.7-0.7-1-1.5-1.1c-0.6,0-1,0.2-1.3,0.7
				c-0.3,0.5-0.5,1-0.5,1.6c-0.1,1,0.1,1.9,0.5,2.6c0.4,0.7,1.1,1.6,2.2,2.5c0.9,0.9,1.4,1.4,2.4,2.4c1.4,1.4,2.6,2.9,3.3,4.4
				c0.7,1.5,1,3.2,0.9,5.2c-0.1,1.5-0.5,2.7-1.2,3.9c-0.7,1.1-1.7,2.1-3,2.6c-1.2,0.6-2.7,0.9-4.2,0.8
				C372.6,396.5,370.5,395.7,369.2,394.1"/>
			<path class="st4" d="M388.3,366.1c5.4,0.3,8.2,0.5,13.7,0.8c-0.1,1.8-0.2,2.7-0.3,4.6c-2.8-0.2-4.2-0.2-7-0.5
				c-0.2,3.1-0.3,4.6-0.4,7.7c2.2,0.1,3.2,0.2,5.3,0.3c-0.1,1.8-0.2,2.9-0.3,4.7c-2.2-0.1-3.2-0.2-5.2-0.3c-0.2,3.7-0.3,5.5-0.5,9.2
				c2.8,0.1,4.2,0.2,7,0.5c-0.1,1.8-0.2,2.7-0.3,4.6c-5.4-0.3-8.2-0.5-13.6-0.8C387.2,386.6,387.8,376.4,388.3,366.1"/>
			<path class="st4" d="M405.2,367.1c1.9,0.1,2.9,0.2,4.7,0.3c2.2,6.1,3.2,9.2,5.2,15.2c0.4-6,0.6-8.9,1-14.8
				c2.3,0.1,3.4,0.2,5.5,0.3c-0.7,10.3-1.4,20.5-2.2,30.8c-1.8-0.1-2.7-0.2-4.5-0.3c-2.1-6.5-3.1-9.8-5.1-16.4
				c-0.4,6.4-0.6,9.6-1,15.9c-2.3-0.1-3.4-0.2-5.6-0.3C403.9,387.6,404.5,377.4,405.2,367.1"/>
		</g>
	</g>
</g>
</svg>
